<svg height="579.8" viewBox="0 0 819.8 579.8" width="819.8" xmlns="http://www.w3.org/2000/svg"><g fill="#282430"><path d="m524.2 376.6a37.78 37.78 0 0 0 -1.7-3.5 67.14 67.14 0 0 0 -4-6.8 39.19 39.19 0 0 0 -2.5-3.2c-.5-.5-1-1-1.6-1.5l-.5-.4-.6-.3c-.2-.1-.5-.2-.7-.3a4.33 4.33 0 0 0 -.5-.1h-.6a.6.6 0 0 0 -.4.1l-.9.4-.1.9-.5 4.7-.3 4.7c-.2 3.1-.3 6.3-.2 9.5.9-3 1.7-6.1 2.4-9.2l.9-4.6.4-2.4a6 6 0 0 1 .8.8 31.55 31.55 0 0 1 2.2 2.9c.7 1 1.4 2.1 2.1 3.1s1.4 2.1 2 3.2l4 6.6c1.4 2.2 2.7 4.4 4.2 6.6a64.37 64.37 0 0 0 -2.5-7.4 23.5 23.5 0 0 0 -1.4-3.8z"/><path d="m162.9 564.3c12.2-43.5 53.1-197.2 62.1-322.9 0 0 1.3-9.9 2.8-23.1 1.7-2.7 3.5-5.3 5.4-7.9a186.73 186.73 0 0 1 13.8-16.8c.7-.8 1.4-1.5 2.1-2.2l1.2 5.7c.6 2.3 1.2 4.6 1.8 6.8.3 1.1.6 2.1 1 3.2-.6.7-1.2 1.3-1.7 2a99.08 99.08 0 0 0 -13.8 22l-2.6 5.9c-.8 2-1.4 4.1-2.1 6.1-.3 1-.7 2-1 3s-.5 2.1-.8 3.1l-1.6 6.2-.4 1.5-.3 1.6-.5 3.2-1 6.3c-.4 4.2-.7 8.5-1 12.7 1.2-4.1 2.2-8.1 3.3-12.2 1.3-4 2.5-8 3.8-11.9l2.2-5.8c.4-1 .7-1.9 1.1-2.9s.8-1.9 1.3-2.8c.8-1.9 1.6-3.8 2.5-5.6l2.9-5.4a117.79 117.79 0 0 1 12.6-18.7c1.6 4.2 3.3 8.4 5.3 12.4a101.13 101.13 0 0 0 -14 21l-2.7 5.8c-.5.9-.8 2-1.2 2.9l-1.1 3c-1.6 3.9-2.6 8-3.8 12a44.71 44.71 0 0 0 -1.4 6.1l-1.2 6.1c-.5 4.2-1 8.3-1.3 12.4.7-2 1.4-3.9 2-5.9s1.3-3.9 1.9-5.9l2.2-5.8 1.1-2.9c.2-.5.3-1 .5-1.4l.6-1.4c1.7-3.7 3.2-7.5 5.1-11.1.9-1.8 1.8-3.6 2.8-5.4l3-5.2a130.55 130.55 0 0 1 11.9-16.5c.1.1.2.3.3.4-.1-.2-.1-.3-.2-.5l2.2-2.5c1.4-1.4 2.7-2.9 4.1-4.2l2.1-2 2.2-1.9 1.1-.9 1.2-.9a4.23 4.23 0 0 1 .7-.5 91.91 91.91 0 0 0 5.9 10.1c-1.6-3.8-3-7.5-4.3-11.4.3-.2.6-.4 1-.7 2.1 4.4 4.1 8.8 6 13.3-.3.2-.7.5-1 .7-.9.6-1.8 1.3-2.6 1.9-1.7 1.3-3.4 2.6-5 4-3.2 2.8-6.4 5.6-9.3 8.7a125.08 125.08 0 0 0 -15.6 20 109 109 0 0 0 -6 11.2c-1.7 3.9-3.3 7.7-4.6 11.7a90.42 90.42 0 0 0 -4.5 24.5 137.35 137.35 0 0 1 8.5-23 118.91 118.91 0 0 1 5.7-10.6c2.1-3.4 4.3-6.8 6.7-10a142.39 142.39 0 0 1 15.8-18c2.9-2.8 5.8-5.4 8.9-7.9a53.25 53.25 0 0 1 4.7-3.6c.6-.4 1.2-.9 1.8-1.3 1.6 4.2 3.1 8.5 4.6 12.8a16 16 0 0 0 -2.3 1c-1 .5-2.1 1-3.1 1.6l-2.9 1.8a56.31 56.31 0 0 0 -10 8.8l-2.2 2.4c-.7.8-1.4 1.7-2 2.5-1.3 1.7-2.7 3.4-3.9 5.2s-2.4 3.6-3.5 5.4l-3.1 5.6c-.5.9-1.1 1.9-1.5 2.8l-1.3 2.9c-.9 1.9-1.8 3.9-2.6 5.8l-2.2 6-1.1 3c-.4 1-.7 2-1 3l-1.7 6.1-.9 3-.4 1.5-.3 1.5-1.3 6.2c-.4 2.1-.8 4.1-1.2 6.2.9-1.9 1.6-3.9 2.5-5.8l2.3-5.8c1.6-3.8 3.4-7.6 5.1-11.3a23.94 23.94 0 0 1 1.3-2.8l1.4-2.8 2.8-5.5 3-5.3c1-1.8 2-3.6 3.1-5.2l3.3-5.1 3.6-4.8a42.2 42.2 0 0 1 3.8-4.6c.7-.7 1.3-1.5 2-2.2l2.1-2.1a51.43 51.43 0 0 1 8.9-7.4l2.4-1.5c.8-.5 1.6-.9 2.4-1.3a6.12 6.12 0 0 1 1.2-.5c1.3 4.4 2.6 8.9 3.7 13.3l-.6.3c-1.1.4-2 1-3 1.4s-1.9 1.1-2.8 1.6a15.86 15.86 0 0 0 -2.7 1.8 24.76 24.76 0 0 0 -2.6 1.9l-2.5 2-1.3 1-1.2 1.1-2.3 2.2a87.22 87.22 0 0 0 -15.2 20.1l-3 5.5c-.8 1.9-1.7 3.8-2.5 5.7l-1.2 2.8-1 2.9c-.7 2-1.4 3.9-2 5.8-.3 1-.6 2-.8 3l-.7 3c-.5 2-1 4-1.4 6-.7 4-1.3 8.1-1.8 12.1 1.4-3.8 2.8-7.6 4.1-11.4 1.6-3.7 3-7.5 4.7-11.1.9-1.8 1.7-3.6 2.6-5.4l1.3-2.7 1.5-2.6c1-1.7 2-3.4 2.9-5.2l3.2-4.9a94.78 94.78 0 0 1 15.1-17.6 65.2 65.2 0 0 1 9-6.9l2.4-1.5c.8-.4 1.6-1 2.4-1.4.6-.3 1.1-.5 1.7-.8.6 2.4 1.1 4.8 1.6 7.3.4 2.2.9 4.3 1.3 6.5-.1 0-.2.1-.3.1-1 .4-2 .9-3 1.4s-1.9 1-2.8 1.5a23.26 23.26 0 0 0 -2.6 1.7l-1.3.9-1.2 1-2.4 1.9c-1.5 1.4-3.1 2.8-4.5 4.3s-2.8 3-4.1 4.6l-3.7 4.9a109.65 109.65 0 0 0 -6.2 10.4 89.23 89.23 0 0 0 -5 10.9l-.6 1.4-.5 1.4-.9 2.8c-.6 1.9-1.3 3.8-1.9 5.6l-1.4 5.8a54.3 54.3 0 0 0 -1.3 5.8q-1 5.85-1.8 11.7c1.4-3.7 2.6-7.4 3.9-11.1l4.3-10.8 2.4-5.3 1.2-2.6.6-1.3.7-1.3 2.7-5.1a48.49 48.49 0 0 1 2.9-4.9 101.9 101.9 0 0 1 6.4-9.3l3.6-4.3c1.3-1.4 2.6-2.7 3.9-4 .6-.7 1.4-1.2 2.1-1.9l2.1-1.8 2.2-1.7 1.1-.8 1.1-.7c.8-.5 1.5-1 2.3-1.4s1.6-.9 2.3-1.3a6.12 6.12 0 0 1 1.2-.5c.9 5.3 1.7 10.7 2.3 16-.9.4-1.7.8-2.5 1.2a20.13 20.13 0 0 0 -2.5 1.4l-1.2.7-1.2.8c-.8.5-1.6 1-2.4 1.6l-2.2 1.7c-1.5 1.1-2.9 2.4-4.3 3.6a78.36 78.36 0 0 0 -13.9 17.1l-2.8 4.7c-.8 1.6-1.6 3.3-2.4 4.9l-1.1 2.5a26 26 0 0 0 -1 2.5l-1.9 5.1a19.75 19.75 0 0 0 -.8 2.6l-.7 2.6c-.5 1.7-1 3.4-1.4 5.2-.7 3.5-1.4 7-1.9 10.5.7-1.6 1.4-3.3 2-4.9l1.9-4.9c1.5-3.2 2.8-6.4 4.4-9.5l2.4-4.6c.4-.8.8-1.5 1.2-2.3l1.4-2.2c.9-1.5 1.8-3 2.7-4.4l3-4.2a93.21 93.21 0 0 1 13.7-15c1.3-1 2.5-2.2 3.9-3.1l2-1.5a23.92 23.92 0 0 1 2.1-1.3l1-.7 1.1-.6a15.05 15.05 0 0 1 2.2-1.1h.1q.75 6.45 1.2 12.9c-.1.1-.3.1-.4.2a10.91 10.91 0 0 0 -1.1.6c-.7.4-1.5.9-2.2 1.3s-1.4.9-2.1 1.4-1.4.9-2 1.4c-1.3 1-2.6 2-3.9 3.1l-1.9 1.6c-.6.5-1.2 1.1-1.8 1.7a88.94 88.94 0 0 0 -12.4 15.1c-.9 1.4-1.7 2.8-2.5 4.2l-1.2 2.1-1.1 2.2c-.7 1.5-1.4 2.9-2.1 4.4l-1.7 4.5-.8 2.2c-.2.8-.5 1.5-.7 2.3-.4 1.5-.9 3.1-1.3 4.6-.8 3.1-1.3 6.3-1.8 9.4.7-1.4 1.3-2.9 1.9-4.3l.9-2.2a20 20 0 0 1 1-2.1l2.1-4.2 1-2.1 1.2-2 2.3-4 2.5-3.9 1.2-1.9 1.4-1.9c.9-1.2 1.8-2.5 2.7-3.7a104.42 104.42 0 0 1 12.4-13.3c.6-.5 1.1-1 1.7-1.5l1.7-1.4c1.1-1 2.4-1.8 3.6-2.7.6-.5 1.2-.8 1.8-1.3s1.2-.8 1.9-1.2c.1 0 .1-.1.2-.1.3 5.2.5 10.4.7 15.7a3.55 3.55 0 0 1 -1 .2 18.66 18.66 0 0 0 -2.2.7c-.7.3-1.4.6-2 .9l-1.9 1a43.43 43.43 0 0 0 -6.9 5 41.07 41.07 0 0 0 -3 2.9c-.9 1-1.9 2-2.8 3.1s-1.7 2.1-2.5 3.2l-2.3 3.4a40.5 40.5 0 0 0 -2.1 3.5l-2 3.5c-1.2 2.4-2.4 4.8-3.4 7.3l-1.4 3.7c-.5 1.2-1 2.5-1.4 3.7-.8 2.5-1.6 5.1-2.3 7.6 1.4-2.3 2.6-4.6 3.9-6.9s2.7-4.5 4-6.7 2.9-4.3 4.2-6.5l2.3-3.1c.7-1 1.5-2.1 2.3-3.1l2.4-3 2.6-2.8a33.15 33.15 0 0 1 2.7-2.6 20.94 20.94 0 0 1 2.8-2.4 39.81 39.81 0 0 1 6-4.1l1.6-.8c.5-.3 1.1-.4 1.6-.7l1-.3v3.7c0 4.3 0 8.5-.1 12.8l-.7.2a9.62 9.62 0 0 0 -1.8.7c-.6.2-1.1.5-1.7.7-1.1.5-2.2 1.1-3.2 1.6a61.74 61.74 0 0 0 -6 3.9 55.72 55.72 0 0 0 -10.1 9.9 52.62 52.62 0 0 0 -7.1 12.1l-.7 1.6c-.2.5-.4 1.1-.6 1.6-.4 1.1-.8 2.2-1.1 3.3a53.73 53.73 0 0 0 -1.5 6.7c.5-1 1-2.1 1.5-3.1s.9-2.1 1.5-3.1a55.1 55.1 0 0 1 3.4-5.8l1.8-2.8 2-2.7a11.32 11.32 0 0 1 1-1.3l1.1-1.3c.7-.8 1.4-1.7 2.2-2.5a61.73 61.73 0 0 1 9.9-8.5 45.34 45.34 0 0 1 5.5-3.4c1-.5 1.9-1 2.9-1.4l1.5-.6c.1 0 .2-.1.3-.1-.1 4.7-.3 9.3-.6 14h-.1l-.5.1a7.39 7.39 0 0 0 -1.9.5c-.5.2-1.1.4-1.6.6a15.93 15.93 0 0 0 -2.9 1.5c-.9.6-1.8 1.1-2.7 1.8l-1.3.9c-.4.3-.8.7-1.2 1l-1.2 1a5.73 5.73 0 0 0 -1.1 1.1c-.7.7-1.5 1.4-2.2 2.2l-2.1 2.3-1.9 2.4c-1.3 1.6-2.4 3.3-3.6 5s-2.2 3.4-3.2 5.2-1.9 3.6-2.8 5.4-1.7 3.7-2.5 5.5l3.6-4.8 3.6-4.8c1.2-1.6 2.5-3.1 3.7-4.6s2.5-3 3.9-4.4a71.28 71.28 0 0 1 8.5-8 35.47 35.47 0 0 1 4.7-3.2c.8-.4 1.6-.9 2.4-1.2.4-.2.8-.3 1.2-.5.2-.1.4-.1.6-.2s.1 0 .2.1c-.3 5.1-.7 10.2-1.1 15.3-.5.1-.9.2-1.3.3a10.2 10.2 0 0 0 -2.1.9c-1.3.7-2.5 1.5-3.7 2.3a46 46 0 0 0 -11.3 12.4 45.48 45.48 0 0 0 -6.3 15.3 84.19 84.19 0 0 1 8.4-13.9 60.51 60.51 0 0 1 5.2-6 41.45 41.45 0 0 1 5.9-5.2 22 22 0 0 1 3.2-2.1 5.58 5.58 0 0 1 1.6-.7c-.4 4.2-.8 8.4-1.3 12.6l-.3-.4-.9.6a34.37 34.37 0 0 0 -5.9 4.8 37.92 37.92 0 0 0 -4.8 5.8 32.83 32.83 0 0 0 -3.5 6.7 25.89 25.89 0 0 0 -1.7 7.3 39.48 39.48 0 0 1 2.8-6.7c.3-.5.6-1.1.9-1.6s.6-1.1.9-1.5c.7-1 1.4-2 2.1-2.9a61.68 61.68 0 0 1 4.8-5.4 45.09 45.09 0 0 1 4.7-4c.2.2.3.5.5.7-.2 2-.5 4.1-.7 6.1l-.6-2.3-1.1 4.2c-.5 1.9-.9 3.8-1.4 5.8s-.8 3.9-1.2 5.8c-.7 3.9-1.4 7.8-1.8 11.7a114 114 0 0 0 3.6-11.3c.5-1.9 1.1-3.8 1.5-5.7.1-.5.3-1.1.4-1.7.4 1.5.9 3.1 1.4 4.6a87.52 87.52 0 0 0 3 8.6c-.3-3-.9-6-1.4-9s-1.2-5.9-1.9-8.9l-.3-1.1c.3-2.1.7-4.2 1-6.2 1.1 1.7 2.2 3.3 3.4 5 1.7 2.4 3.4 4.7 5.3 7-1.3-2.7-2.6-5.2-4.1-7.8q-1.95-3.6-4.2-7.2c.7-4.5 1.3-9.1 1.9-13.6.1 0 .1.1.2.2l.6.6a17.88 17.88 0 0 1 1.3 1.4c.8 1 1.6 2.1 2.4 3.2 3.2 4.4 6.2 8.9 9.5 13.4a106.93 106.93 0 0 0 -7.3-14.8c-.7-1.2-1.5-2.4-2.3-3.5a21 21 0 0 0 -1.4-1.7c-.3-.3-.5-.6-.8-.9-.2-.1-.3-.3-.5-.4s-.2-.1-.3-.2-.3-.1-.4-.2-.4-.1-.6-.2c.6-4.9 1.1-9.7 1.6-14.6a28 28 0 0 1 5.2 3.2l1.7 1.5c.6.5 1.1 1.1 1.6 1.6a12.88 12.88 0 0 1 1.6 1.7c.5.6 1 1.1 1.5 1.7a81.49 81.49 0 0 1 5.5 7.6c1.7 2.7 3.3 5.4 4.8 8.2a48.83 48.83 0 0 0 -3.1-9.1c-.6-1.5-1.4-2.9-2.1-4.4l-1.2-2.1c-.4-.7-.9-1.4-1.3-2.1a41.64 41.64 0 0 0 -6.4-7.6 25.38 25.38 0 0 0 -7.3-4.7c.4-4.7.8-9.3 1.1-14a29.81 29.81 0 0 1 7.3 4.6 59.75 59.75 0 0 1 8.6 8.8 142.41 142.41 0 0 1 13.8 21.4 77.58 77.58 0 0 0 -4.2-12.3 71.25 71.25 0 0 0 -6.3-11.5 50.13 50.13 0 0 0 -4-5.4 43.36 43.36 0 0 0 -4.7-4.9 32 32 0 0 0 -10.3-6.4c.3-4.5.5-9 .6-13.6 0-1.1.1-2.2.1-3.3a20.8 20.8 0 0 1 3.8 2.2 50.85 50.85 0 0 1 5.8 4.8 89.93 89.93 0 0 1 9.9 12.1c3 4.4 5.8 8.9 8.5 13.6s5.2 9.4 7.8 14.3a105.52 105.52 0 0 0 -4.8-15.7 113.67 113.67 0 0 0 -7.1-15 71.62 71.62 0 0 0 -9.8-13.7c-3.8-4-8.3-7.7-13.9-9.6.1-5.5 0-11.1-.1-16.6a36 36 0 0 1 11.2 7.3 96.41 96.41 0 0 1 11.9 13.4 176.17 176.17 0 0 1 10.3 15.2c3.3 5.2 6.4 10.6 9.5 16-.8-3-1.7-6-2.8-9s-2.2-5.9-3.4-8.8a121.54 121.54 0 0 0 -8.7-16.8 85.68 85.68 0 0 0 -11.8-15.3 43.89 43.89 0 0 0 -7.8-6.3 31.24 31.24 0 0 0 -8.7-3.9c-.2-4.5-.4-9-.8-13.4a51.16 51.16 0 0 1 14.1 7.7 73.7 73.7 0 0 1 7.4 6.4c2.3 2.3 4.6 4.7 6.8 7.2a173.48 173.48 0 0 1 12.1 16.1c3.8 5.6 7.3 11.4 10.7 17.4a124.76 124.76 0 0 0 -18.2-37.1 84.59 84.59 0 0 0 -6.6-8.2c-1.2-1.3-2.4-2.6-3.7-3.8s-2.6-2.4-4-3.6a50 50 0 0 0 -19.3-10.3c-.5-5.2-1-10.3-1.7-15.4a45.3 45.3 0 0 1 16.7 7.7 86.47 86.47 0 0 1 16.7 15.9 164.52 164.52 0 0 1 13.6 19.4 238 238 0 0 1 11.4 21.1 132.58 132.58 0 0 0 -8.1-22.9c-1.7-3.7-3.5-7.3-5.5-10.9a113.76 113.76 0 0 0 -6.6-10.4 89.51 89.51 0 0 0 -7.8-9.7 75 75 0 0 0 -9.3-8.5 61.37 61.37 0 0 0 -11.1-6.6 52.6 52.6 0 0 0 -11.1-3.3c-.3-2.3-.7-4.6-1.1-6.8s-.8-4.5-1.2-6.7a49.78 49.78 0 0 1 6.7 1.4 54.81 54.81 0 0 1 10.9 4.6 80.31 80.31 0 0 1 10.1 6.7 101.71 101.71 0 0 1 9.2 8.2c2.9 2.9 5.7 6 8.4 9.2s5.3 6.5 7.7 10a236.78 236.78 0 0 1 13.8 21.4 138.25 138.25 0 0 0 -10.1-23.8c-2.1-3.8-4.4-7.5-6.8-11.1a99.18 99.18 0 0 0 -8-10.4c-1.4-1.7-2.9-3.3-4.5-4.9s-3.2-3.1-4.9-4.6a78.32 78.32 0 0 0 -10.9-8 61.49 61.49 0 0 0 -12.5-5.7 59 59 0 0 0 -11.1-2.2c-.9-4.2-1.9-8.5-3-12.7 1.9.4 3.9.8 5.8 1.3a66.28 66.28 0 0 1 10.5 3.9 107.84 107.84 0 0 1 10 5.4c3.2 2.1 6.4 4.3 9.4 6.6a150.55 150.55 0 0 1 17.1 15.9 179 179 0 0 1 15.1 18.3 113.78 113.78 0 0 0 -11.9-20.9 126.51 126.51 0 0 0 -15.9-18.4 91 91 0 0 0 -20.2-14.3 75.54 75.54 0 0 0 -11.7-4.8 64.78 64.78 0 0 0 -10.8-2.3c-1.1-4-2.4-7.9-3.7-11.8 1.3.2 2.6.4 3.8.7 2 .4 4 .8 5.9 1.3l2.9.8 2.9.9a99.27 99.27 0 0 1 22.1 9.8 85.5 85.5 0 0 1 10 7 88.57 88.57 0 0 1 9.1 8.3c2 2 3.8 4.2 5.6 6.4.2.6.5 1.1.7 1.7a4.25 4.25 0 0 1 -.2-1.1 82.56 82.56 0 0 1 8.5 13.2c-1.9-7.7-5.7-14.9-10.3-21.6-.3-1.4-.6-2.8-1-4.2-.7-4.6-1.6-9.2-2.3-13.7l-.8-6.9-.4-3.4c-.1-1.1-.1-2.3-.2-3.4l-.3-6.9c0-2.3.1-4.6.1-6.8a113.19 113.19 0 0 1 3.8-26.7 83.22 83.22 0 0 1 4.6-12.4 26.39 26.39 0 0 1 1.5-2.9c.5-.9 1-1.9 1.6-2.8a13 13 0 0 1 1-1.5c3.6 2.5 7.2 5.2 10.7 7.8a69.36 69.36 0 0 0 -9.7 23.9 99 99 0 0 0 -1.6 28.7 136.43 136.43 0 0 0 5.2 27.8c1.3 4.5 2.8 9 4.5 13.3a113.75 113.75 0 0 0 5.8 12.8 262 262 0 0 1 -6.1-27c-.8-4.5-1.4-9.1-1.8-13.6s-.7-9.1-.7-13.6a119.09 119.09 0 0 1 .6-13.4 115.5 115.5 0 0 1 2.2-13.1 86.1 86.1 0 0 1 4.2-12.4 76.67 76.67 0 0 1 4.3-8l3.8 3.1a54.6 54.6 0 0 1 4.5 3.9l2.4 2.1a59.46 59.46 0 0 0 -9.5 23.2c-.5 2.2-.8 4.5-1.1 6.8s-.4 4.5-.5 6.8a119.48 119.48 0 0 0 .2 13.4 164.75 164.75 0 0 0 4.4 26.2 151.45 151.45 0 0 0 8.6 24.8c-1.9-8.5-3.4-17.1-4.5-25.6a200.27 200.27 0 0 1 -1.8-25.6c0-4.2.2-8.5.6-12.6a98.57 98.57 0 0 1 2-12.3 57.11 57.11 0 0 1 8.1-19.1l4.2 4.1c2.1 2 4.2 4 6.2 6.1a68.9 68.9 0 0 0 -5.3 9.6 79.43 79.43 0 0 0 -4.1 12.5 96.37 96.37 0 0 0 -2.1 25.6 139.64 139.64 0 0 0 3.7 25 129.23 129.23 0 0 0 8.2 23.6 225.18 225.18 0 0 1 -3.9-24.4c-.5-4.1-.8-8.1-.9-12.2s-.2-8.1-.1-12.1a93.93 93.93 0 0 1 1-11.9 113.28 113.28 0 0 1 2.3-11.6 78.23 78.23 0 0 1 3.9-10.9 69.48 69.48 0 0 1 3.6-6.6l4.2 4.5c1.3 1.5 2.8 2.9 4 4.4l2.1 2.4a61.31 61.31 0 0 0 -4.6 9.7 78.64 78.64 0 0 0 -3.2 11.5 92.06 92.06 0 0 0 -1.5 11.6 112.26 112.26 0 0 0 -.2 11.6 144.71 144.71 0 0 0 2.6 22.8 127.25 127.25 0 0 0 6.2 21.9c-.9-7.5-1.6-15-1.9-22.4q-.3-5.55-.3-11.1l.1-5.5c.1-1.8.1-3.7.2-5.5a117.23 117.23 0 0 1 3-21.5 67.18 67.18 0 0 1 5.8-15.9c1.2 1.4 2.4 2.7 3.5 4.1l4.9 6.2a79.17 79.17 0 0 0 -4.2 9.4 87 87 0 0 0 -3 10.8 102.38 102.38 0 0 0 -2 22c.1 3.7.2 7.3.6 10.9s.9 7.2 1.5 10.8a124.1 124.1 0 0 0 5.7 20.9 191.45 191.45 0 0 1 -1.9-21.3c-.2-3.5-.3-7.1-.2-10.6s.1-7 .3-10.5c.1-1.7.3-3.5.5-5.2s.4-3.5.6-5.2a91.82 91.82 0 0 1 2-10.2 85.11 85.11 0 0 1 3-9.8c.7-1.8 1.5-3.6 2.3-5.3l1 1.2c1.2 1.6 2.3 3.2 3.5 4.8l4.3 6a25.74 25.74 0 0 0 -4.8 7.8 52.79 52.79 0 0 0 -2.8 9.1 72.73 72.73 0 0 0 -1.3 9.2c-.3 3.1-.4 6.1-.4 9.2a154.64 154.64 0 0 0 4.3 35.9c0-6-.1-12 0-17.9s.3-11.9.9-17.7a108.16 108.16 0 0 1 2.7-17.2 45.73 45.73 0 0 1 2.6-7.9 22.41 22.41 0 0 1 2.8-4.8c3.5 5 6.8 10.1 10.1 15.2a25.4 25.4 0 0 0 -4.7 6.7 43.06 43.06 0 0 0 -2.7 7.6 52.32 52.32 0 0 0 -1.5 7.7 66.75 66.75 0 0 0 -.7 7.7 111.63 111.63 0 0 0 .2 15.3 127.33 127.33 0 0 0 2 15.1c.2-5.1.3-10.1.7-15.1s.8-10 1.4-14.9a96.62 96.62 0 0 1 2.9-14.4c1.2-4 2.9-8 5.4-10.9 2.4 3.8 4.7 7.7 7.1 11.6a19.09 19.09 0 0 0 -3.2 5.9 50.3 50.3 0 0 0 -1.9 6.3 90.49 90.49 0 0 0 -1.9 12.7c-.4 4.2-.5 8.4-.5 12.6s.2 8.4.6 12.6l1.9-12.4q.9-6.15 2.1-12.3c.8-4.1 1.6-8.1 2.7-12a52.66 52.66 0 0 1 1.9-5.6 22.45 22.45 0 0 1 1.3-2.7c2.8 4.8 5.4 9.6 8.1 14.5a30.7 30.7 0 0 0 -4.9 9.5 24.13 24.13 0 0 0 -.8 2.5l-.6 2.6c-.2.9-.3 1.7-.5 2.6a23.36 23.36 0 0 0 -.4 2.6 71.73 71.73 0 0 0 -.6 10.4 59.58 59.58 0 0 0 .8 10.3c.3-3.4.7-6.8 1.2-10.1.3-1.7.5-3.3.8-5s.6-3.3 1-4.9l.6-2.4a21.72 21.72 0 0 1 .7-2.4l.7-2.4a20.94 20.94 0 0 0 .8-2.3 34.19 34.19 0 0 1 3.4-6.6c1.9 3.6 3.8 7.3 5.7 11a7.77 7.77 0 0 0 -3 3.6 21.4 21.4 0 0 0 -1.3 3.8 40.83 40.83 0 0 0 -1.1 7.7c-.2 2.6-.2 5.1-.2 7.6s.2 5.1.5 7.6l.9-7.5c.3-2.5.6-5 1.1-7.4a54 54 0 0 1 1.6-7.2 23.69 23.69 0 0 1 1.3-3.2 5.37 5.37 0 0 1 1.4-1.8c.2 0 .3.1.5.1 2 3.9 3.9 7.8 5.8 11.7-1.7-3.9-3.4-7.7-5.2-11.6 1 .3 2 .6 3 1a36.23 36.23 0 0 1 4.5 2 46 46 0 0 1 8.3 5.5c.6.5 1.3 1.1 1.9 1.7l.9.8.9.9 1.8 1.8 1.6 1.9.8 1 .8 1 1.5 2.1c.5.7.9 1.4 1.4 2.2l1.4 2.2a40.45 40.45 0 0 0 -2-4.8l-1.2-2.3-.6-1.2-.7-1.1-1.5-2.2c-.5-.7-1.1-1.4-1.6-2.1l-.8-1-.9-1c-.6-.6-1.2-1.3-1.9-1.9a42 42 0 0 0 -8.7-6.3 30.62 30.62 0 0 0 -4.9-2.2 29.42 29.42 0 0 0 -5.3-1.4l-.4-.1c-1.8-3.8-3.5-7.6-5.4-11.4 1.4.2 2.8.5 4.2.8 1.9.4 3.8 1 5.7 1.6l2.8.9 2.8 1.1c1.8.8 3.6 1.6 5.3 2.5a58.5 58.5 0 0 1 10 6.4 85.6 85.6 0 0 1 8.9 8.2 44.11 44.11 0 0 0 -7.4-9.9 62 62 0 0 0 -4.6-4.2c-1.7-1.2-3.3-2.5-5.1-3.6a55.71 55.71 0 0 0 -11.3-5.4c-1-.3-2-.7-3-1a28.06 28.06 0 0 0 -3.1-.8 63.68 63.68 0 0 0 -6.3-1.1l-1.1-.1c-2.3-4.7-4.7-9.3-7.1-14 1.2.2 2.5.5 3.7.7l3.3.8 3.3.9c4.4 1.2 8.7 2.7 12.9 4.3a106.35 106.35 0 0 1 12.3 5.8 120.75 120.75 0 0 1 11.7 7.4 63.17 63.17 0 0 0 -10.2-9.8l-1.4-1.1-1.5-1-3-2c-2.1-1.2-4.1-2.4-6.2-3.5a79.55 79.55 0 0 0 -13.2-5.4l-3.4-1-3.5-.9c-2.4-.5-4.6-1-7.2-1.3l-.9-.1c-2-3.6-4-7.3-6-10.9h.4c1.2-.1 2.4-.1 3.7-.1 2.5 0 4.9.1 7.4.3a103.12 103.12 0 0 1 14.6 2.3 90.43 90.43 0 0 1 14.2 4.6c1.2.5 2.4.9 3.5 1.4s2.3 1.1 3.4 1.6a36.52 36.52 0 0 1 3.4 1.8c1.1.6 2.2 1.2 3.4 1.8-1.9-1.6-3.9-3.4-6-4.9a55.44 55.44 0 0 0 -6.5-4.2c-2.2-1.3-4.6-2.4-6.9-3.5-1.2-.6-2.4-1-3.6-1.5l-1.8-.7c-.6-.2-1.2-.4-1.9-.6a78.83 78.83 0 0 0 -15.3-3.4 68.37 68.37 0 0 0 -7.9-.5c-1.3 0-2.6 0-4 .1-1.1 0-2.1.1-3.2.2-3.1-5.2-6.2-10.4-9.5-15.5a.9.9 0 0 0 .5-.1c1.3-.1 2.7-.3 4-.3a56.16 56.16 0 0 1 8.2.2 93.19 93.19 0 0 1 16.4 3.2l4.1 1.2 4 1.4 2 .7 2 .8 4 1.6c2.6 1.1 5.2 2.4 7.8 3.6s5.1 2.7 7.7 4c-2.2-1.9-4.5-3.7-6.8-5.5-1.2-.8-2.4-1.7-3.6-2.5s-2.4-1.7-3.7-2.4l-3.8-2.2c-.6-.4-1.3-.7-1.9-1.1l-2-1-4-1.9-4.1-1.7a77.22 77.22 0 0 0 -17.3-4.5 55 55 0 0 0 -9.1-.5 35.53 35.53 0 0 0 -4.6.3l-2.3.3a5.07 5.07 0 0 1 -1.3.2l-4.3-6.5c-1.1-1.7-2.2-3.4-3.4-5l-.6-.9h5.1c1.7 0 3.4.1 5 .2l5 .3a169.3 169.3 0 0 1 20 3l2.5.6 2.5.6c1.6.5 3.3.9 4.9 1.4s3.2 1.1 4.8 1.6l2.4.8 2.4 1 4.8 1.9c1.5.7 3.1 1.5 4.6 2.2.8.4 1.6.7 2.3 1.1l2.2 1.3c1.5.8 3 1.7 4.6 2.5-1.3-1.2-2.6-2.3-3.9-3.4l-2-1.7-2.1-1.5c-1.4-1-2.9-2-4.3-3l-4.6-2.7c-.8-.4-1.5-.9-2.3-1.3l-2.4-1.1c-1.6-.7-3.2-1.5-4.8-2.2-3.3-1.3-6.6-2.6-10-3.6a122.34 122.34 0 0 0 -20.8-4.5c-1.8-.2-3.5-.4-5.3-.5s-3.5-.3-5.3-.3-3.6-.1-5.3-.1-3.5.1-5.4.2l-4.6-6.4c-1-1.3-2-2.6-3.1-3.9.1 0 .2-.1.4-.1l5.4-.9c3.6-.5 7.2-.9 10.9-1.1a123.41 123.41 0 0 1 21.9.7c3.6.5 7.3 1.1 10.9 1.8a99.46 99.46 0 0 1 10.7 2.9 129.15 129.15 0 0 1 20.7 8.9 79.63 79.63 0 0 0 -19-12.9c-3.5-1.7-7.1-3.1-10.8-4.5a111.11 111.11 0 0 0 -11.3-3.1 107.92 107.92 0 0 0 -23.4-2.2c-3.9.1-7.8.4-11.7.8-2 .2-3.9.6-5.8.9l-2.9.6c-.6.1-1.2.3-1.9.4l-2.1-2.7c-1.2-1.6-2.6-3.1-3.9-4.6l-3.8-4.4c.3-.1.7-.2 1-.3a49.45 49.45 0 0 1 5.5-1.5 57.24 57.24 0 0 1 5.7-1.1c1.9-.3 3.9-.4 5.8-.6a111.68 111.68 0 0 1 23.8 1l6 .9c2 .4 4 .9 5.9 1.3l3 .6 2.9.8 5.9 1.6c3.9 1.2 7.8 2.5 11.7 3.8 3.8 1.5 7.7 2.9 11.7 4.3-3.5-2.2-7.1-4.4-10.7-6.5-1.8-1-3.7-1.9-5.6-2.8s-3.7-1.9-5.7-2.8l-5.8-2.4-2.9-1.2c-1-.4-2-.7-3-1-2-.7-4-1.3-6-1.9s-4.1-1-6.2-1.5a99 99 0 0 0 -25.5-2.5l-3.2.2a31.63 31.63 0 0 0 -3.2.3c-2.2.3-4.3.6-6.5 1.1a46.37 46.37 0 0 0 -6.4 1.7c-1.1.4-2.1.7-3.2 1.2-.4.2-.8.3-1.3.5l-6.3-6.6-3-3.2c.1-.1.3-.1.4-.2a28.11 28.11 0 0 1 3.1-1c1-.3 2.1-.7 3.1-.9l3.2-.8a30.05 30.05 0 0 0 3.2-.7c2.1-.5 4.3-.8 6.5-1.1a125.37 125.37 0 0 1 26.7-.4l6.7.8c1.1.1 2.2.3 3.3.5l3.3.6c4.5.7 8.9 1.9 13.3 3 2.2.5 4.4 1.3 6.6 1.9l6.6 2.1c2.2.7 4.3 1.6 6.5 2.4s4.3 1.6 6.5 2.4c-3.9-2.4-7.9-4.8-12-7.1l-6.3-3c-2.1-1-4.2-2.1-6.4-2.9-4.4-1.6-8.8-3.4-13.3-4.6l-3.4-1c-1.1-.3-2.3-.7-3.4-.9l-7-1.4a109.43 109.43 0 0 0 -28.6-1c-2.4.3-4.8.5-7.2 1-1.2.2-2.4.4-3.6.7l-3.5.9c-1.2.3-2.3.6-3.5 1s-2.3.7-3.5 1.2a25.54 25.54 0 0 0 -3.5 1.4 2 2 0 0 0 -.8.4l-3.1-2.9c-1.5-1.4-2.9-2.8-4.5-4.1l-2.7-2.4c.1-.1.2-.1.4-.2a60.7 60.7 0 0 1 5.9-2.4 63.6 63.6 0 0 1 6.2-1.9c2.1-.5 4.3-.9 6.4-1.4a116.11 116.11 0 0 1 26.4-1.5c2.2.2 4.5.1 6.7.4s4.5.5 6.7.7c1.1.1 2.2.2 3.4.4l3.3.6 6.7 1.1c4.4.9 8.9 1.9 13.3 2.8 4.4 1.2 8.8 2.4 13.3 3.4q-6.15-3-12.6-5.7c-2.1-.9-4.3-1.6-6.5-2.4s-4.3-1.6-6.5-2.3c-8.9-2.5-17.9-4.9-27.3-5.8a107.32 107.32 0 0 0 -28.3.2c-2.4.4-4.7.8-7.1 1.3s-4.7 1.1-7 1.9-4.6 1.7-6.8 2.6c-1.1.6-2.2 1-3.3 1.7-.2.1-.3.2-.5.3-3.3-2.7-6.6-5.3-10-7.9 2.1-1.2 4.3-2.4 6.5-3.4a97.74 97.74 0 0 1 12.2-4.3 108.91 108.91 0 0 1 12.9-2.5c4.4-.5 8.8-.8 13.2-1a172.19 172.19 0 0 1 26.8 1.6 220.83 220.83 0 0 1 26.7 5.2 131.11 131.11 0 0 0 -25.9-9.3 150 150 0 0 0 -27.5-4.3 132.64 132.64 0 0 0 -14.1.1 114.25 114.25 0 0 0 -14.1 2.1 95 95 0 0 0 -13.7 4.4 72.13 72.13 0 0 0 -10.6 5.7l-1.1-.8c-4.4-3.1-8.9-6.1-13.4-8.9.6-.5 1.3-1 1.9-1.5s1.5-1.1 2.3-1.6l2.3-1.5c.8-.5 1.6-.9 2.4-1.4s1.6-1 2.5-1.4l2.5-1.2.6-.3c.8.4 1.6.8 2.3 1.2l-1.8-1.5a92.08 92.08 0 0 1 18.6-6.1c2.8 1.7 5.6 3.3 8.5 4.8-2-1.8-4.1-3.6-6.1-5.3l5.2-.9a6.75 6.75 0 0 1 1.4-.2l1.4-.1 2.9-.3 2.9-.3c.5 0 1-.1 1.4-.1h3.2l3.6 2.4c3.2 1.9 6.4 3.7 9.6 5.5-2.8-2.5-5.6-4.8-8.3-7.2a6.47 6.47 0 0 0 -.9-.8h.1a58.08 58.08 0 0 1 5.9.1c2 .1 3.9.2 5.9.2 1.4.1 2.8.2 4.2.4 1.5 1.1 3 2.1 4.6 3.1a44.78 44.78 0 0 0 4.7 2.8c1.6.9 3.2 1.7 4.8 2.6-1.4-1.2-2.7-2.4-4.1-3.5s-2.8-2.2-4-3.5a9 9 0 0 0 -1-.9 24.52 24.52 0 0 0 2.7.2c-1.2-.4-2.4-.7-3.6-1.1a73.34 73.34 0 0 1 -5.5-5.7l-1.8-2c-.6-.7-1.2-1.3-1.7-2l-3.2-4.1-.8-1-.7-1.1-1.5-2.2-1.5-2.1c-.5-.7-.9-1.5-1.4-2.2a102.4 102.4 0 0 1 -9.1-18.5c-.7-1.6-1.1-3.2-1.7-4.8s-1-3.3-1.5-4.9l-1.2-4.8c4.9.4 9.7.9 14.5 1.5v.2c.2 1 .4 1.9.6 2.8.4 1.9.9 3.7 1.4 5.5a103.81 103.81 0 0 0 3.9 10.6 93 93 0 0 0 11.3 19.3c1.1 1.5 2.3 2.9 3.5 4.3s2.5 2.8 3.8 4.1a82.81 82.81 0 0 0 8.2 7.5 89.8 89.8 0 0 0 18.6 11.5 136.79 136.79 0 0 1 -15.9-14.4 108.79 108.79 0 0 1 -12.8-16.7 103.75 103.75 0 0 1 -9.2-18.6 85.65 85.65 0 0 1 -3.1-9.8c-.4-1.6-.8-3.3-1.1-4.9 1.1.2 2.2.3 3.2.5 4.9 1.1 9.9 2 14.8 3.3 0 .5.1.9.1 1.4l.3 2.7a20 20 0 0 0 .5 2.6l.3 1.3.3 1.3.7 2.6.8 2.5c.5 1.7 1.2 3.3 1.8 4.9a82.61 82.61 0 0 0 10.2 18.1l3.1 4.1c1.1 1.3 2.3 2.6 3.4 3.8a81.54 81.54 0 0 0 7.2 7.2c1.2 1.2 2.6 2.2 3.9 3.3s2.6 2.1 3.9 3.2c2.7 2 5.5 3.8 8.3 5.7-2.2-2.5-4.5-4.9-6.8-7.3-2.1-2.6-4.4-4.9-6.4-7.6s-4.1-5.1-5.9-7.8c-.9-1.4-1.9-2.7-2.7-4l-2.5-4.1a104.55 104.55 0 0 1 -8.1-17.3c-.5-1.5-1-3-1.4-4.5l-.6-2.3-.5-2.3-.2-1.1-.2-1.1a18.1 18.1 0 0 1 -.3-2.3.9.9 0 0 0 -.1-.5l1.3.3a23.35 23.35 0 0 1 2.5.7l2.4.8 7.6 2.6v1.5a21.05 21.05 0 0 0 .2 2.5l.3 2.4a20 20 0 0 0 .4 2.4c.3 1.6.6 3.2 1 4.7l.6 2.3c.2.8.5 1.5.7 2.3a78.93 78.93 0 0 0 8.1 17.1l2.7 3.9c.5.6.9 1.3 1.4 1.9l1.5 1.8c1 1.2 2 2.4 3 3.5l3.3 3.3 1.6 1.6 1.8 1.5c1.2 1 2.4 2 3.6 2.9 2.4 1.9 5 3.5 7.6 5.2-1-1.2-2-2.3-3-3.4s-2.1-2.2-3-3.4-1.9-2.4-2.8-3.5l-1.4-1.7-1.3-1.8-2.6-3.6c-.8-1.2-1.6-2.5-2.4-3.7l-1.2-1.9a17.38 17.38 0 0 1 -1-1.9l-2.1-3.9a88.2 88.2 0 0 1 -6.1-16.2 16 16 0 0 1 -.5-2.1l-.4-2.1c-.3-1.4-.5-2.8-.7-4.2l-.3-2.1c-.1-.7-.1-1.3-.2-2 3.8 1.5 7.5 3.2 11.3 4.9 0 1.2.1 2.2.2 3.3.1 1.4.3 2.8.5 4.1s.5 2.7.7 4.1l1 4a69 69 0 0 0 6.1 15.2 73.1 73.1 0 0 0 4.3 7 62.08 62.08 0 0 0 5.2 6.3 57.71 57.71 0 0 0 12.5 10.1c-.9-1-1.8-2-2.6-3l-1.3-1.4a15.76 15.76 0 0 1 -1.2-1.5l-2.4-3.1c-.8-1-1.4-2.1-2.2-3.2-1.5-2.1-2.6-4.4-3.9-6.6-1.1-2.3-2.3-4.5-3.2-6.9a80.88 80.88 0 0 1 -4.4-14.5l-.7-3.7c-.2-1.2-.4-2.5-.5-3.7l-.3-2.7c3.8 1.9 7.5 3.9 11.2 6v.1a4.1 4.1 0 0 0 -.1 1.1c0 .3-.1.7-.1 1a13.35 13.35 0 0 0 0 2c0 1.3.1 2.6.1 3.8a46.89 46.89 0 0 0 1.2 7.5 50.06 50.06 0 0 0 5.6 14 8.64 8.64 0 0 0 1 1.6l1 1.6 1 1.5 1.2 1.5 2.4 2.9c.9.9 1.7 1.8 2.6 2.6l1.3 1.3a17.41 17.41 0 0 1 1.4 1.2c.9.8 1.9 1.5 2.9 2.3 2 1.4 4.1 2.6 6.1 3.9-.8-.9-1.7-1.7-2.5-2.6s-1.7-1.6-2.5-2.6-1.5-1.8-2.3-2.7a12.67 12.67 0 0 1 -1.1-1.3l-1-1.4-2.1-2.8-1.8-3-.9-1.5-.8-1.5-.8-1.5a7.74 7.74 0 0 1 -.7-1.6l-1.3-3.2-1.1-3.2a52.78 52.78 0 0 1 -1.6-6.6c-.4-2.2-.6-4.5-.8-6.7 0-1.1-.1-2.2 0-3.3v-.6c3 1.8 5.9 3.6 8.9 5.5v1.5a5.72 5.72 0 0 0 .1 1.4c0 .4.1.9.1 1.3a18.66 18.66 0 0 0 .4 2.5 38.94 38.94 0 0 0 1.2 4.9 37.53 37.53 0 0 0 1.7 4.7 22.88 22.88 0 0 0 1 2.3l1.1 2.2a41 41 0 0 0 5.6 8 43.53 43.53 0 0 0 7 6.6c-.8-1.4-1.7-2.7-2.5-4s-1.6-2.7-2.3-4.1a68.47 68.47 0 0 1 -3.6-8.4 64.55 64.55 0 0 1 -2.4-8.6c-.3-1.5-.5-2.9-.7-4.4 0-.5-.1-1-.1-1.5 2.5 1.8 5.1 3.6 7.5 5.4l-.1.7a6.48 6.48 0 0 0 0 1.4c.1.4.1.8.2 1.2a14.13 14.13 0 0 0 .6 2.2 18.94 18.94 0 0 0 .9 2.1l.5 1 .5 1a44.52 44.52 0 0 0 5.2 6.9c1 1.1 2 2 3 3s2.1 1.9 3.2 2.7 2.2 1.7 3.4 2.5 2.3 1.6 3.5 2.3c-1-1-2-2-3-2.9l-2.9-3a41.21 41.21 0 0 1 -2.8-3.1c-.9-1.1-1.8-2.1-2.6-3.2a37.63 37.63 0 0 1 -4.4-6.8l-.5-.9-.4-.9a13.36 13.36 0 0 1 -.7-1.8c-.1-.4-.2-.9-.3-1.3.1 0 .2.1.3.1.5.2.9.4 1.4.6a5.55 5.55 0 0 1 .8.6c-.2-.2-.5-.4-.7-.6.3.1.7.3 1 .4l5.1 2.1 10.3 4.5 10.3 4.4c3.5 1.5 6.9 2.9 10.5 4.2-3.2-2.1-6.4-4-9.7-5.8s-6.6-3.6-9.9-5.4-6.7-3.4-10.2-4.9c-1.7-.8-3.4-1.5-5.2-2.3-.9-.4-1.8-.7-2.7-1s-1.9-.6-2.9-.9l-1.8-.5-.1.8c-2.2-1.8-4.4-3.5-6.7-5.2a71.62 71.62 0 0 1 9.2-.9c2.1-.2 4.3 0 6.4-.1 1.1 0 2.1.1 3.2.2s2.2.1 3.2.2a95.91 95.91 0 0 1 12.9 2 123.5 123.5 0 0 1 12.9 3.5 48 48 0 0 0 -11.8-6.9 67.32 67.32 0 0 0 -13.2-4.1c-2.3-.5-4.6-.7-6.9-1a54.57 54.57 0 0 0 -7-.2 65.25 65.25 0 0 0 -13.9 1.7l-2.2.5-8.7-6a44 44 0 0 1 5.2-3 46.63 46.63 0 0 1 7.4-2.7 65 65 0 0 1 16-2.1 116.46 116.46 0 0 1 16.6 1 162.61 162.61 0 0 1 16.7 3 81.91 81.91 0 0 0 -16-6.3 89.72 89.72 0 0 0 -17.2-3 58.64 58.64 0 0 0 -17.7 1.4 46.24 46.24 0 0 0 -8.6 3 39.37 39.37 0 0 0 -7.8 4.9l-.4.3c-4-2.5-8-4.9-12.1-7.1v-.3a44.81 44.81 0 0 1 14-9.2 91.57 91.57 0 0 1 18.2-5.6 174.23 174.23 0 0 1 19.4-2.9c6.6-.7 13.2-1.1 19.9-1.3a102.44 102.44 0 0 0 -20-2.7 115.23 115.23 0 0 0 -20.3.7 69.15 69.15 0 0 0 -10.1 1.9c-1.7.4-3.3.9-5 1.4s-3.3 1.1-4.9 1.8a46.83 46.83 0 0 0 -17.7 12l-.5.6c-3.7-1.9-7.5-3.7-11.3-5.5a81.43 81.43 0 0 1 5.4-6.3c.6-.6 1.2-1.2 1.9-1.8a15.37 15.37 0 0 1 1.9-1.7l2-1.7 2.1-1.6a87.35 87.35 0 0 1 18.4-10.4 154.55 154.55 0 0 1 20.5-7 219.29 219.29 0 0 1 21.7-4.4 99.54 99.54 0 0 0 -22.5-.2 108 108 0 0 0 -22.3 4.7 84 84 0 0 0 -20.8 10.3 71.89 71.89 0 0 0 -9.1 7.6 58.09 58.09 0 0 0 -7.4 9l-7.2-2.8-2.4-1c-.8-.3-1.7-.5-2.5-.8l-1.9-.6a16.44 16.44 0 0 1 1.4-2.2c.5-.7 1-1.5 1.5-2.3l1.6-2.2c.5-.7 1.1-1.4 1.7-2.1s1.1-1.4 1.8-2.1l1.8-2 2-1.9a93.39 93.39 0 0 1 17.8-13.2 136.81 136.81 0 0 1 20.5-9.6 176.82 176.82 0 0 1 22.1-6.7 97.41 97.41 0 0 0 -23.4 2.4c-3.9.9-7.7 1.9-11.5 3.1a88.9 88.9 0 0 0 -11.1 4.5 83.65 83.65 0 0 0 -20.3 13.3 67.41 67.41 0 0 0 -14.4 18.3c-4.9-1.4-9.9-2.6-14.8-3.9-1.2-.3-2.4-.5-3.6-.8a115 115 0 0 1 13.9-17.2c1.6-1.5 3.1-3.1 4.7-4.5s3.3-2.9 4.9-4.2a113.53 113.53 0 0 1 10.6-7.6 132.46 132.46 0 0 1 23.5-11.8 125.92 125.92 0 0 1 12.7-4.2c2.1-.6 4.3-1.2 6.5-1.7s4.4-1 6.6-1.3c-9.1-.6-18.3.7-27.2 2.8a105.32 105.32 0 0 0 -25.8 10 97.78 97.78 0 0 0 -11.8 7.5 103.88 103.88 0 0 0 -10.7 9 108.45 108.45 0 0 0 -17.1 21.6c-4.8-.8-9.7-1.5-14.5-2.1a81.41 81.41 0 0 1 4.1-7.7 93.81 93.81 0 0 1 7.3-10.5 127.36 127.36 0 0 1 18.4-18.3 181.41 181.41 0 0 1 21.6-15.1 222.62 222.62 0 0 1 23.7-12.5 129.7 129.7 0 0 0 -25.8 8.4c-4.1 1.9-8.3 3.9-12.3 6.1a125.75 125.75 0 0 0 -11.6 7.3 113.33 113.33 0 0 0 -20.6 18.6 84.52 84.52 0 0 0 -8.2 11.4 91.92 91.92 0 0 0 -5.7 11.3c-1.7-.1-3.5-.3-5.2-.4-3.6-.2-7.1-.3-10.7-.4a73.92 73.92 0 0 1 3.6-8.8 91.25 91.25 0 0 1 7.1-11.5 128 128 0 0 1 18.9-20.1c3.5-3.1 7.2-6 11-8.8s7.6-5.5 11.6-8.1 8-5.1 12.1-7.5 8.3-4.8 12.5-7a160.3 160.3 0 0 0 -51.7 25.6 109.28 109.28 0 0 0 -21.2 20.7 88.2 88.2 0 0 0 -8.1 12.7 81.3 81.3 0 0 0 -4.9 12.7c-5.4.1-10.8.3-16.2.7a66.74 66.74 0 0 1 2.9-7.4 85.61 85.61 0 0 1 6.9-12.1 134.74 134.74 0 0 1 18.4-21.7c3.4-3.4 7-6.6 10.6-9.8s7.4-6.3 11.3-9.2 7.8-5.9 11.8-8.7 8-5.6 12.2-8.3a163.68 163.68 0 0 0 -26.6 13 171.1 171.1 0 0 0 -24.3 17.4 119.87 119.87 0 0 0 -10.9 10.5 109.79 109.79 0 0 0 -9.6 11.8 80.5 80.5 0 0 0 -12 25.3c-5.8.6-11.6 1.4-17.4 2.3a30.67 30.67 0 0 1 2.2-7.1 66.38 66.38 0 0 1 6.8-12.1c2.7-3.9 5.6-7.6 8.7-11.3s6.4-7.2 9.8-10.7c6.8-7 13.9-13.7 21.1-20.3 3.7-3.3 7.3-6.6 11.1-9.8s7.5-6.5 11.2-9.7a226.92 226.92 0 0 0 -25.3 15.7c-4 2.9-8.1 5.8-12 8.9s-7.7 6.4-11.4 9.7a150 150 0 0 0 -20.4 22.4 72.78 72.78 0 0 0 -7.8 13.6 39.8 39.8 0 0 0 -3 12.1c-4.1.8-8.2 1.7-12.2 2.6l-3.8.9q.6-2.85 1.5-5.7c.4-1 .6-2 1-3l1.2-2.9c.9-1.9 1.8-3.8 2.8-5.7a131.88 131.88 0 0 1 14.6-21.3 232.41 232.41 0 0 1 17.9-19.3c3.2-3 6.4-6.1 9.7-9.1s6.6-5.9 10.1-8.8a163.94 163.94 0 0 0 -22.5 14.7c-3.5 2.8-7 5.6-10.4 8.6s-6.6 6.2-9.7 9.5-6 6.8-8.8 10.4a82.18 82.18 0 0 0 -7.5 11.6 65.61 65.61 0 0 0 -8 23c-4.7 1.3-9.3 2.7-13.9 4.2.2-.8.3-1.5.5-2.3a67.94 67.94 0 0 1 3.7-10.4 144.38 144.38 0 0 1 11-19.9c4.2-6.4 8.7-12.7 13.4-18.8 2.4-3.1 4.8-6.1 7.2-9.1 1.2-1.5 2.5-3 3.7-4.5s2.5-3 3.9-4.4a82.27 82.27 0 0 0 -9.3 7.2c-3 2.6-5.8 5.3-8.6 8.1a166.7 166.7 0 0 0 -15.6 17.9 112.31 112.31 0 0 0 -12.5 20.5 76.27 76.27 0 0 0 -4.2 11.6 54 54 0 0 0 -1.3 7c-2.2.8-4.3 1.6-6.5 2.4-2.7 1-5.3 2.1-8 3.1a61.2 61.2 0 0 1 2.7-12.4 90 90 0 0 1 4-9.7c1.5-3.2 3.2-6.3 5-9.5a208.76 208.76 0 0 1 11.9-18.1c2.1-2.9 4.3-5.9 6.6-8.7 1.1-1.5 2.3-2.9 3.4-4.3s2.3-2.9 3.6-4.2a82.32 82.32 0 0 0 -8.7 6.9c-2.8 2.5-5.4 5-8 7.7a139 139 0 0 0 -14.2 17.3 91.82 91.82 0 0 0 -10.6 20.1 50.7 50.7 0 0 0 -3.4 18.2c-1.3.6-2.6 1.1-3.8 1.7-1.6.7-3.2 1.5-4.8 2.3s-3.2 1.5-4.8 2.4c-1.2.6-2.4 1.2-3.6 1.9-.2-.2-.3-.4-.5-.6a39.33 39.33 0 0 0 6.2-11.1 60.72 60.72 0 0 0 3.3-16.1 86.46 86.46 0 0 0 -.4-16.1 81.65 81.65 0 0 0 -3.3-15.6c.2 5.3.2 10.5 0 15.7a131.61 131.61 0 0 1 -1.5 15.4 60.84 60.84 0 0 1 -1.6 7.4 45.64 45.64 0 0 1 -2.4 7.1 35.15 35.15 0 0 1 -3.3 6.4 17.68 17.68 0 0 1 -1.6 2.2c-1-1-2.1-2.1-3.2-3.1-2.9-2.8-5.9-5.4-8.9-8a31.42 31.42 0 0 0 2.4-3.9c.7-1.3 1.3-2.6 2-3.9a16.67 16.67 0 0 0 .8-2c.3-.7.5-1.4.8-2a52.48 52.48 0 0 0 3-17 64.17 64.17 0 0 0 -2.1-16.9 59.66 59.66 0 0 0 -6.4-15.4 89.47 89.47 0 0 1 3 16.1 84.56 84.56 0 0 1 .1 15.9 57.09 57.09 0 0 1 -3.6 15.2 51.48 51.48 0 0 1 -5.1 9.9c-3.8-3-7.7-5.9-11.6-8.6l1.2-2.1c.6-1.1 1.2-2.2 1.7-3.3a34.93 34.93 0 0 0 1.5-3.4 51.25 51.25 0 0 0 3.4-14.4 46.74 46.74 0 0 0 -6.8-28.1 41.63 41.63 0 0 0 -9.1-10.9 70.92 70.92 0 0 1 6.2 12.3 59.31 59.31 0 0 1 3.4 13 52.25 52.25 0 0 1 .1 13.1 50.94 50.94 0 0 1 -3.3 12.6c-.4 1-.8 2-1.3 3a26.39 26.39 0 0 1 -1.5 2.9c-.3.6-.6 1.1-.9 1.7a5.67 5.67 0 0 0 -1.3-.8c-3.4-2.1-6.8-4.2-10.4-6.1a56.43 56.43 0 0 0 4.5-12.7 46.2 46.2 0 0 0 -4.5-31.9 42.79 42.79 0 0 0 -9.8-12.5 37.91 37.91 0 0 1 2 3.4 37.78 37.78 0 0 1 1.7 3.5 61.55 61.55 0 0 1 2.8 7.1 57.1 57.1 0 0 1 2.8 14.6 50.33 50.33 0 0 1 -1.4 14.5 64 64 0 0 1 -4 11.1 129.6 129.6 0 0 0 -13.2-5.9 41.71 41.71 0 0 0 3.9-10.9 48 48 0 0 0 .9-7.5 47.15 47.15 0 0 0 -.4-7.5 45.7 45.7 0 0 0 -4.4-14 43.82 43.82 0 0 0 -8.3-11.6 64.52 64.52 0 0 1 5.2 12.9 50.65 50.65 0 0 1 2.2 13.2 48.52 48.52 0 0 1 -.2 6.6 44.36 44.36 0 0 1 -5.2 16.4c-3.6-1.3-7.3-2.4-11.1-3.4a40.71 40.71 0 0 0 1.3-5l.6-3.5.3-1.7a10.87 10.87 0 0 0 .1-1.8l.2-3.5c0-1.2-.1-2.4-.2-3.6l-.1-1.8-.3-1.8c-.2-1.2-.4-2.3-.7-3.5a37.33 37.33 0 0 0 -6.1-12.7 33.16 33.16 0 0 0 -10.2-9.2 42.54 42.54 0 0 1 7.8 10.7c.5 1 1 1.9 1.4 2.9a18.15 18.15 0 0 1 1.1 3 28 28 0 0 1 .9 3.1l.7 3.1c.2 1 .2 2.1.4 3.2.1.5.1 1 .2 1.6v1.6c0 1.1.1 2.1 0 3.2l-.3 3.2a8.6 8.6 0 0 0 -.1 1.6l-.3 1.6-.6 3.2c-.4 1.6-.8 3.2-1.3 4.8l-1.3-.3-3.4-.6-3.4-.6-1.7-.3-1.1-.1c.1-.6.2-1.3.3-1.9l.2-1.5.1-1.5c.1-1 0-2 0-3.1a39.44 39.44 0 0 0 -.9-6 34.65 34.65 0 0 0 -1.9-5.7 52.78 52.78 0 0 0 -2.7-5.3 44.85 44.85 0 0 0 -16.6-15.8 72.91 72.91 0 0 1 7.2 8.6 56 56 0 0 1 5.6 9.3c3.1 6.5 4.6 13.5 3.6 20.4-.1.7-.2 1.3-.3 1.9l-1.9-.2-6.8-.3-1.7-.1h-1.2a27.45 27.45 0 0 0 -1.2-11 29.74 29.74 0 0 0 -6.5-11 39.73 39.73 0 0 0 -9.8-7.6 42.37 42.37 0 0 0 -11.3-4.5 84.06 84.06 0 0 1 9.7 6.8 51.61 51.61 0 0 1 8 8.2 28.66 28.66 0 0 1 4.9 9.7 23.8 23.8 0 0 1 .7 9.6h-1.8l-3.4.3-3.7.3a16.86 16.86 0 0 0 -1-5.8 19.59 19.59 0 0 0 -5.9-8.7 28.71 28.71 0 0 0 -8.5-5.1 33.87 33.87 0 0 0 -9.4-2.2 53.13 53.13 0 0 1 8.1 4.6 31.45 31.45 0 0 1 6.7 5.8 16.18 16.18 0 0 1 4.4 11v1.1l-4.3.7c-1.6.3-3.2.7-4.8 1.1a5 5 0 0 0 -.4-1.3 11.23 11.23 0 0 0 -2.4-3.8 23.59 23.59 0 0 0 -6.5-5 43.77 43.77 0 0 0 -14.7-4.8 125.54 125.54 0 0 1 12.9 7.7c3.2 2.4 6.3 5.2 6.8 8.3-2.5.7-5.1 1.4-7.5 2.2-.3-.5-.6-1-.9-1.4a11.92 11.92 0 0 0 -1.8-1.5 14.21 14.21 0 0 0 -3.6-1.6 30.75 30.75 0 0 0 -7.1-1.4 56.22 56.22 0 0 0 -7.1-.3 53.57 53.57 0 0 0 -7 .6c2.3.6 4.6 1 6.8 1.5s4.5 1 6.7 1.5a51.92 51.92 0 0 1 6.3 1.9 12.6 12.6 0 0 1 2.6 1.3 2.85 2.85 0 0 1 .8.7c-1.7.6-3.3 1.3-5 2s-3.3 1.4-4.9 2.1a10.62 10.62 0 0 0 -1.7-1c-.4-.2-.9-.4-1.3-.6a7.37 7.37 0 0 0 -1.4-.4 15.72 15.72 0 0 0 -5.7-.4 23.28 23.28 0 0 0 -10.4 3.4 32.05 32.05 0 0 1 10.5-1.7 21.63 21.63 0 0 1 5.1.7 9.43 9.43 0 0 1 2.3 1c.1.1.3.1.4.2-1.7.8-3.3 1.7-5 2.5a45.31 45.31 0 0 0 -4.8 2.7c-.2-.3-.5-.6-.8-.6a3.42 3.42 0 0 0 -1.3-.2 16.7 16.7 0 0 0 -4 .9 44.27 44.27 0 0 0 -7 3.2 44.06 44.06 0 0 0 -6.4 4.2c2.4-.8 4.8-1.7 7.1-2.6s4.6-1.9 6.9-2.6a10.57 10.57 0 0 1 3.3-.8l-4.7 2.8 5.3-2.8a3.23 3.23 0 0 1 -.2 1.2 41.32 41.32 0 0 1 -3.5 6.5 34.46 34.46 0 0 0 2.8-2.6 18.6 18.6 0 0 0 2.3-3.2 3.45 3.45 0 0 0 .5-2.4c0-.1-.1-.3-.1-.4a44.42 44.42 0 0 1 4.9-2.4c1.9-.8 3.7-1.7 5.6-2.5.2.2.4.3.5.5.9 1 .8 2.5.1 4a18.64 18.64 0 0 1 -2.7 4.4 77.63 77.63 0 0 1 -7.3 7.9 42.9 42.9 0 0 0 8.6-6.8 21.47 21.47 0 0 0 3.3-4.6 9.47 9.47 0 0 0 .8-3 5.39 5.39 0 0 0 -1.1-3.2c1.5-.6 3-1.2 4.6-1.7s3.1-1.1 4.7-1.7a41.13 41.13 0 0 1 -.7 4.7 60.35 60.35 0 0 1 -1.5 6.1 33.2 33.2 0 0 1 -2.4 5.9 36.28 36.28 0 0 1 -3.5 5.5 20 20 0 0 0 5.3-4.3 27.62 27.62 0 0 0 3.8-5.8 39.12 39.12 0 0 0 2.4-6.5 32 32 0 0 0 1.1-6.9c2.3-.7 4.7-1.2 7.1-1.8a40.92 40.92 0 0 1 -3.9 13.5 85.36 85.36 0 0 1 -7.6 12.9 38.21 38.21 0 0 0 10.6-11.3 34.06 34.06 0 0 0 5.2-15 4.48 4.48 0 0 1 .1-1.1l5-.9 3.6-.4v.4a63.44 63.44 0 0 1 -2.1 8.6 48.88 48.88 0 0 1 -3.4 8.2 29.55 29.55 0 0 1 -2.3 3.8 32.38 32.38 0 0 1 -2.7 3.5 41 41 0 0 1 -6.8 6.3 28.36 28.36 0 0 0 15.5-11.4 38.66 38.66 0 0 0 4.7-8.7 46.22 46.22 0 0 0 2.6-9.5 11 11 0 0 0 .2-1.8c1.3-.1 2.7-.1 4-.2 1.1 0 2.2-.1 3.3-.1h1.3v.2a15.54 15.54 0 0 1 -.5 2.3 41.86 41.86 0 0 1 -1.4 4.7 59.68 59.68 0 0 1 -3.9 9 63 63 0 0 1 -5.4 8.4c-1 1.4-2.1 2.6-3.2 3.9-.5.7-1.2 1.2-1.7 1.9s-1.2 1.3-1.8 1.9c1.5-.9 3-1.7 4.4-2.7a42.3 42.3 0 0 0 4.1-3.3 44 44 0 0 0 7-7.9 42.81 42.81 0 0 0 5.1-9.4 51.73 51.73 0 0 0 1.8-5.1c.2-.9.5-1.7.7-2.6.1-.4.1-.7.2-1.1h1.5l1.6.2 6.6.6 1.1.2c-.5 1.3-1 2.7-1.6 4-1.5 3.3-3.2 6.6-5 9.7a113.07 113.07 0 0 1 -13.2 17.9 59 59 0 0 0 16.8-15.5 62.68 62.68 0 0 0 6.1-9.9 50.54 50.54 0 0 0 2.4-5.3l1.6.3a9.36 9.36 0 0 1 1.6.4l3.2.7 3.2.7.4.1c-1.1 2.1-2.3 4.2-3.5 6.2q-2.85 4.65-6 9.3a20.28 20.28 0 0 1 -1.3 1.8c-3.4-.4-6.9-.7-10.4-.8 3.1.7 6.2 1.5 9.3 2.3-.3.4-.5.8-.8 1.2-1.1 1.5-2.2 2.9-3.4 4.4-2.3 2.9-4.8 5.7-7.2 8.6a67.09 67.09 0 0 0 9-6.9 73.61 73.61 0 0 0 6.3-6.2c3.3 1 6.5 2.1 9.7 3.3l-1.5 1.5a23.91 23.91 0 0 1 -2.3 2.2l-2.3 2.2-2.4 2.1c-1.5 1.5-3.3 2.8-4.9 4.2l-5-1.2c-2-.3-4-.7-6-1l-3-.5-3-.3c-2-.2-4-.3-6.1-.4-.5 0-1-.1-1.5-.1h-1.5l-3 .1c-2 .1-4 .1-6 .2l6 .9 3 .4 1.5.2 1.5.3c2 .4 3.9.8 5.8 1.2l2.9.6 2.9.8c1.9.5 3.8 1 5.7 1.6l1.7.6c-.2.2-.5.4-.7.6.4-.1.7-.3 1.1-.4l3.5 1.2c.9.3 1.9.6 2.8 1l2.7 1.2 2.7 1.1c.9.4 1.8.7 2.7 1.2l5.2 2.6c1.7.9 3.4 2 5.1 2.9s3.3 2.1 4.9 3.1a50.87 50.87 0 0 1 4.7 3.4 54.56 54.56 0 0 1 4.5 3.6c1.5 1.2 2.9 2.6 4.3 3.8l3 3c-3.6 1.7-7.2 3.5-10.6 5.4-.8.5-1.6.9-2.4 1.4a46.6 46.6 0 0 0 -8.3-7.2 69.94 69.94 0 0 0 -11.6-6.5 123 123 0 0 0 -24.8-7.8 199.33 199.33 0 0 0 -25.4-3.7 181 181 0 0 0 -25.5-.5c8.4 1.2 16.8 2.5 25 4.2s16.4 3.5 24.5 5.8c4 1.2 7.9 2.5 11.8 3.9a103.58 103.58 0 0 1 11.3 4.8 61.79 61.79 0 0 1 16.4 11.2c-3.7 2.3-7.3 4.8-10.8 7.3a58.93 58.93 0 0 0 -20.4-12.4 93.94 93.94 0 0 0 -12.5-3.7 109.91 109.91 0 0 0 -12.8-2c-4.3-.4-8.5-.8-12.8-.8s-8.5 0-12.7.3a161.22 161.22 0 0 0 -25.1 3.4c8.4-.2 16.8-.2 25.1.3a202.78 202.78 0 0 1 24.7 2.7 115.14 115.14 0 0 1 23.5 6.6 57.54 57.54 0 0 1 16.8 10.3l-2.6 2c-2.5 2-5 4-7.4 6.1a62.16 62.16 0 0 0 -11.2-5.7 76.15 76.15 0 0 0 -13.2-3.7 87.47 87.47 0 0 0 -13.4-1.6c-2.2-.1-4.5-.2-6.7-.2s-4.5.1-6.7.2c-4.4.2-8.9.6-13.2 1.2s-8.7 1.4-13 2.3a155.51 155.51 0 0 0 -25.2 7.5c8.6-1.6 17.2-2.9 25.8-3.7 4.3-.5 8.6-.8 12.9-1s8.6-.3 12.9-.2 8.5.3 12.7.7c2.1.2 4.2.5 6.3.8s4.1.7 6.2 1.2a64.9 64.9 0 0 1 19.8 7.5q-6 5.4-11.7 11.1a45.2 45.2 0 0 0 -10.2-4.3 69.92 69.92 0 0 0 -11.8-2.2 114.15 114.15 0 0 0 -23.4.5 174.67 174.67 0 0 0 -22.7 4.3 168.54 168.54 0 0 0 -21.8 7.2q11.25-2.1 22.5-3.6c7.5-1 15-1.7 22.4-2 3.7-.1 7.4-.2 11.1-.1a99.88 99.88 0 0 1 11 .9 72.43 72.43 0 0 1 10.5 2.2 37.07 37.07 0 0 1 6.8 2.7c-2.6 2.7-5.1 5.4-7.6 8.1a31.22 31.22 0 0 0 -9.8-3.5 58 58 0 0 0 -10.9-.9 92.79 92.79 0 0 0 -10.6.7c-3.5.4-7 1-10.4 1.7a200.83 200.83 0 0 0 -20.3 5.1c-6.7 2-13.2 4.2-19.7 6.8 6.6-2 13.3-3.7 20.1-5.2a206.61 206.61 0 0 1 20.4-3.4c3.4-.4 6.8-.7 10.2-.8s6.8-.1 10.1.1a51.7 51.7 0 0 1 9.7 1.6 28.66 28.66 0 0 1 6.7 2.8c-3.3 3.8-6.5 7.6-9.6 11.5a50 50 0 0 0 -8.4-1.7 70.92 70.92 0 0 0 -9.2-.5 97.31 97.31 0 0 0 -18 2.1 126.72 126.72 0 0 0 -17.3 4.9 119.15 119.15 0 0 0 -16.3 7.3c5.7-1.8 11.4-3.4 17.1-4.7a170.14 170.14 0 0 1 17.3-3.3 112.48 112.48 0 0 1 17.3-1.1 64.47 64.47 0 0 1 13.9 1.7c-2.5 3.2-5 6.4-7.4 9.6a67.58 67.58 0 0 0 -14.9-1.1c-1.3 0-2.6.2-3.9.3a23.2 23.2 0 0 0 -3.8.5l-3.8.7-3.7.9c-1.2.3-2.5.7-3.7 1s-2.4.7-3.6 1.2c-2.4.8-4.7 1.8-7.1 2.8a70.58 70.58 0 0 0 -13.1 7.5 147.13 147.13 0 0 1 14.1-4.9 141.42 141.42 0 0 1 14.3-3.4 100.18 100.18 0 0 1 14.5-1.3h3.6c1.2 0 2.4.2 3.6.3l1.8.1 1.8.3.3.1c-.9 1.2-1.7 2.4-2.6 3.5-1.7 2.4-3.4 4.7-5.1 7.1l-.3-.3-1.2.1a105.62 105.62 0 0 0 -13.7 2.2 87.64 87.64 0 0 0 -13.2 4.1 83.29 83.29 0 0 0 -12.4 6 62.6 62.6 0 0 0 -11.1 8 112.56 112.56 0 0 1 12.3-5.5c2.1-.8 4.2-1.6 6.3-2.3l3.2-1.1 3.2-1c4.3-1.2 8.5-2.3 12.9-3.1 3.4-.7 6.7-1.2 10.1-1.6-2.8 4-5.5 8.1-8.1 12.2l-.2-.1c-.1 0-.2-.1-.4-.2l-.5-.2-.5.1a55.73 55.73 0 0 0 -9.2 2 73.29 73.29 0 0 0 -8.6 3.4 64.14 64.14 0 0 0 -8.1 4.5 56.77 56.77 0 0 0 -7.4 5.5c2.8-1.3 5.5-2.5 8.3-3.7s5.6-2.2 8.4-3.2 5.7-1.8 8.5-2.6a57.34 57.34 0 0 1 7-1.3c-1.8 2.8-3.6 5.6-5.3 8.5l-1.2.2a39.05 39.05 0 0 0 -8.3 2.2 57.18 57.18 0 0 0 -7.4 3.8 81.19 81.19 0 0 0 -6.7 4.8 52.09 52.09 0 0 0 -5.9 5.6c2.4-1.4 4.7-2.7 7.1-4s4.7-2.5 7.1-3.6a65.2 65.2 0 0 1 7.3-2.9 47.68 47.68 0 0 1 5.1-1.3c-1.7 2.7-3.3 5.5-5 8.2l-.9.2a17.83 17.83 0 0 0 -5.9 2.8 46.57 46.57 0 0 0 -4.9 3.9c-1.5 1.4-3 2.9-4.4 4.4a45.37 45.37 0 0 0 -3.9 4.8c1.5-1.4 3.1-2.7 4.6-4.1s3.1-2.6 4.7-3.9 3.2-2.4 4.9-3.5a19.75 19.75 0 0 1 3.8-2v.4l-2.1 3.6 2.1-3.3-.3 3.9c-.2 2.1-.6 4.1-.9 6.1s-.9 4-1.5 6-1.3 3.9-2.1 5.9a37.57 37.57 0 0 0 3.2-5.5 42.66 42.66 0 0 0 2.1-6 42.64 42.64 0 0 0 1.3-6.2 44.82 44.82 0 0 0 .5-6.4v-1.4c1.8-2.7 3.5-5.4 5.3-8.1a22.5 22.5 0 0 1 .8 2.4l.6 2.1.5 2.1a51.77 51.77 0 0 1 1.1 8.7 38.47 38.47 0 0 1 -.6 8.9 58.27 58.27 0 0 1 -2.3 8.9 35 35 0 0 0 4.5-8.3 34.71 34.71 0 0 0 1.3-4.6 26.26 26.26 0 0 0 .6-4.8 38.46 38.46 0 0 0 -.5-9.6l-.5-2.4c-.2-.8-.4-1.6-.6-2.3a29.16 29.16 0 0 0 -1.8-4.6l-.4-.8c2-3 4-5.9 6-8.9l.6.6.4.4.3.5a3.33 3.33 0 0 1 .6 1 20.3 20.3 0 0 1 1.9 4.5 57.9 57.9 0 0 1 1.6 10.4l.1 2.7.1 1.3v1.4a48.66 48.66 0 0 1 -.1 5.4c-.1 1.8-.1 3.7-.2 5.5s-.2 3.7-.3 5.5c.6-1.8 1.1-3.5 1.6-5.3a13.1 13.1 0 0 0 .6-2.7l.6-2.7a52.06 52.06 0 0 0 .8-5.5l.2-1.4.1-1.4.2-2.8a44.11 44.11 0 0 0 -1.1-11.4 24.13 24.13 0 0 0 -2.2-5.6 3.81 3.81 0 0 0 -.9-1.3 11.32 11.32 0 0 0 -1-1.3l-1.2-1.2h-.1c3-4.2 6-8.4 9-12.5.1.1.2.3.3.4.5.7 1 1.6 1.5 2.4a42.67 42.67 0 0 1 2.4 5.3 74.1 74.1 0 0 1 3.2 11.4l.6 3 .5 3 .8 6 .7 6.1c.2 2 .3 4.1.6 6.2.3-2 .6-4.1.9-6.2s.3-4.1.5-6.2.1-4.2.1-6.3l-.2-3.1a16.28 16.28 0 0 0 -.3-3.1 60.21 60.21 0 0 0 -2.5-12.5 35.58 35.58 0 0 0 -2.5-6.1 27.55 27.55 0 0 0 -1.7-2.9c-.3-.5-.7-.9-1-1.4-.1-.2-.3-.3-.4-.5 1.8-2.4 3.6-4.8 5.5-7.2 1-1.3 2-2.5 3-3.8.7 1.4 1.3 2.8 1.9 4.2q1.35 3.3 2.4 6.6a110.08 110.08 0 0 1 3.5 13.7 96.31 96.31 0 0 1 1.5 14.2 140.93 140.93 0 0 1 -.3 14.5 76.71 76.71 0 0 0 3-14.4c.3-2.5.3-4.9.4-7.4 0-1.2-.1-2.5-.1-3.7l-.1-1.9-.2-1.9a81 81 0 0 0 -2.7-14.7c-.7-2.4-1.5-4.8-2.4-7.1a60.13 60.13 0 0 0 -3.2-6.9c2.5-3.1 5-6.1 7.6-9.1.2.4.4.9.6 1.3l1.8 3.9c.6 1.3 1.1 2.7 1.6 4s1 2.7 1.4 4.1.9 2.8 1.2 4.2l1.1 4.2a81.29 81.29 0 0 1 1.5 8.6 92.9 92.9 0 0 1 .7 17.5l-.1 2.2a16.35 16.35 0 0 1 -.2 2.2c-.2 1.5-.4 2.9-.5 4.4s-.5 2.9-.7 4.4l-.8 4.4c.6-1.4 1.1-2.8 1.6-4.2a30.87 30.87 0 0 0 1.4-4.3c.4-1.4.8-2.9 1.2-4.4a17.42 17.42 0 0 0 .5-2.2l.4-2.2a68.46 68.46 0 0 0 1-9.1c.1-1.5 0-3 .1-4.6v-2.3l-.2-2.3a79.78 79.78 0 0 0 -3.1-18.1c-.4-1.5-.9-2.9-1.4-4.4s-1.1-2.9-1.6-4.3-1.2-2.8-1.9-4.2c-.5-1.1-1.1-2.2-1.7-3.3 3.1-3.6 6.3-7.1 9.5-10.5.2.4.4.7.6 1.1a22.56 22.56 0 0 1 1.1 2.2 21.4 21.4 0 0 1 1 2.2c.7 1.5 1.3 3 1.9 4.6l.9 2.4.7 2.4a94.92 94.92 0 0 1 3.8 19.8c.1 3.4.5 6.8.3 10.2 0 1.7 0 3.4-.1 5.1l-.4 5.1c-.1.9-.1 1.7-.2 2.6l-.4 2.5-.8 5.1c-.6 3.4-1.4 6.7-2.1 10.1 1-3.3 2.1-6.6 2.9-9.9l1.2-5.1.6-2.5a20.24 20.24 0 0 0 .4-2.6l.8-5.1c.2-1.7.3-3.5.5-5.2.4-3.5.3-7 .5-10.5a105.33 105.33 0 0 0 -2.3-20.9l-.6-2.6-.7-2.6a49.94 49.94 0 0 0 -1.6-5.1c-.3-.9-.6-1.7-.9-2.5a26 26 0 0 0 -1-2.5c-.4-.8-.7-1.7-1.1-2.5a1.61 1.61 0 0 0 -.4-.7c2.8-2.9 5.6-5.7 8.5-8.4.5.6.9 1.3 1.4 1.9l1.3 2.3 1.2 2.4c.4.8.7 1.6 1.1 2.5s.7 1.7 1 2.5l.8 2.6a12.55 12.55 0 0 1 .7 2.6l.6 2.7a25.58 25.58 0 0 1 .5 2.7c.2 1.8.5 3.7.7 5.5l.3 5.6a13.1 13.1 0 0 1 0 2.8v5.6a26.35 26.35 0 0 1 -.2 2.8c-.2 1.9-.4 3.8-.5 5.7a55.79 55.79 0 0 1 -.8 5.7c-.3 1.9-.5 3.8-.9 5.7-.8 3.8-1.5 7.5-2.3 11.3-1 3.7-1.9 7.5-2.7 11.3 1.7-3.5 3.2-7.1 4.8-10.7.4-.9.7-1.8 1-2.7l1-2.8 1.9-5.6c.6-1.9 1-3.8 1.5-5.7s1.1-3.8 1.4-5.7.7-3.9 1-5.9c.1-1 .4-2 .5-2.9l.3-3a78.23 78.23 0 0 0 -1-24.1c-.1-1-.5-2-.7-3l-.8-3a24.88 24.88 0 0 0 -1.1-2.9 25.15 25.15 0 0 0 -1.2-2.9c-.5-.9-.9-1.9-1.4-2.8l-1.6-2.8c-.6-.9-1.2-1.8-1.9-2.7l-.3-.4c3.9-3.7 7.9-7.2 12-10.6.3.6.7 1.1 1 1.7.5.8.8 1.7 1.3 2.5s.8 1.7 1.2 2.6a70 70 0 0 1 3.4 11 87.54 87.54 0 0 1 1.7 23.5c-.1 2-.2 4-.4 6s-.5 4-.8 6c-.1 1-.2 2-.4 3l-.6 3c-.4 2-.8 3.9-1.2 5.9-.9 3.7-2 7.4-2.9 11.1-1.2.8-2.3 1.6-3.4 2.5 1-.4 2-.8 3-1.1-1.2 3.6-2.4 7.3-3.5 11 2-3.6 3.8-7.3 5.7-11a4.18 4.18 0 0 0 .4-1c3.1-1.1 6.1-2.2 9.2-3.2.2-.1.4-.1.6-.2-.9 2.4-1.8 4.8-2.8 7.1 1.7-2.5 3.2-5.1 4.7-7.7 3.1-1 6.3-1.9 9.5-2.7-.5 1.3-1 2.5-1.5 3.8.8-1.3 1.7-2.7 2.5-4.1.6-.2 1.3-.3 1.9-.5a86.5 86.5 0 0 1 14.9-2.2 44.41 44.41 0 0 1 11.6.9c-1.7 4.3-3.5 8.6-5.3 12.8a43.52 43.52 0 0 0 -15.7.2 85.13 85.13 0 0 0 -17.5 5.6 114.72 114.72 0 0 0 -15.8 8.6 167.16 167.16 0 0 0 -14.5 10.5c2.8-1 5.5-2.4 8.2-3.5s5.4-2.4 8.1-3.5c5.4-2.3 10.8-4.5 16.3-6.3a99.45 99.45 0 0 1 16.5-4.1 42.16 42.16 0 0 1 11.2-.2c-1.8 3.9-3.7 7.9-5.6 11.8a10.91 10.91 0 0 1 -.6 1.1l-1.6-.2-2.1-.3-2.1-.1c-1.4 0-2.9-.1-4.3-.2l-4.3.2a70 70 0 0 0 -16.5 3.3 82.57 82.57 0 0 0 -15.2 6.7c-2.4 1.4-4.7 2.8-7 4.4a65.07 65.07 0 0 0 -6.4 5.1 126.92 126.92 0 0 1 14.9-6.2 118.82 118.82 0 0 1 15.2-4.3 73.55 73.55 0 0 1 15.4-1.8 51.47 51.47 0 0 1 10.4.6c-.3.6-.6 1.1-.9 1.7-1.7 3.3-3.4 6.6-5.2 9.9l-1.1 2.1c-.1 0-.2-.1-.3-.1-5.5-1.3-10.4-.7-15.2.1a79.08 79.08 0 0 0 -13.7 3.7 121 121 0 0 0 -25.1 12.1c9.1-2.1 17.9-4.4 26.7-6.3 4.4-.9 8.8-1.8 13.1-2.3 2.2-.2 4.3-.4 6.4-.4a27.28 27.28 0 0 1 4.1.3l-.4.7-5.6 9.6a25.44 25.44 0 0 0 -7.6-1.4 37.31 37.31 0 0 0 -8.2.6 68.7 68.7 0 0 0 -15 4.6 96.4 96.4 0 0 0 -13.5 7.1 69 69 0 0 0 -6.3 4.2 67.54 67.54 0 0 0 -5.9 4.7c4.7-1.9 9.3-3.8 13.9-5.6s9.3-3.4 13.9-4.8a76.77 76.77 0 0 1 13.9-3 31 31 0 0 1 10.6.4c-.6.9-1.1 1.8-1.7 2.8-1.7 2.7-3.3 5.4-5 8l-2-.6a14.16 14.16 0 0 0 -2-.4 34.22 34.22 0 0 0 -7.8-.2 45.83 45.83 0 0 0 -7.4 1.3c-2.4.6-4.7 1.3-7 2.1a91 91 0 0 0 -13.1 6c-2.1 1.2-4.1 2.4-6.1 3.7s-3.9 2.7-5.8 4.2c4.5-1.5 8.9-3 13.4-4.4s8.9-2.6 13.3-3.6a75.27 75.27 0 0 1 13.1-1.9 31.8 31.8 0 0 1 6.2.4c.3.1.6.1.9.2-2.7 4.1-5.4 8.1-8.1 12.1a20.84 20.84 0 0 0 -6.3-1.3 34.46 34.46 0 0 0 -7.2.3 64.27 64.27 0 0 0 -13.2 3.6 89 89 0 0 0 -12.1 5.7 92.9 92.9 0 0 0 -11.2 7.2c4.2-1.5 8.3-3.1 12.4-4.4s8.3-2.7 12.4-3.7a77.15 77.15 0 0 1 12.4-2.3 28.91 28.91 0 0 1 8.9.5c-1.1 1.6-2.2 3.2-3.4 4.8l-6.3 8.5c-.1 0-.2-.1-.3-.1a8.8 8.8 0 0 0 -1.5-.5 26.46 26.46 0 0 0 -6-.9 46.62 46.62 0 0 0 -11.3 1.3 71.93 71.93 0 0 0 -20.2 8.4c7.2-1.3 14.2-2.7 21.1-3.3a57.18 57.18 0 0 1 10.1-.2 18.4 18.4 0 0 1 4.2.8l-3 4-5 6.5a30 30 0 0 0 -10.5-1.7l-2.6.1a23.36 23.36 0 0 0 -2.6.4 18.43 18.43 0 0 0 -2.5.5l-2.5.6a58.61 58.61 0 0 0 -9.4 3.5 56.69 56.69 0 0 0 -8.6 5c3.2-.9 6.3-1.7 9.5-2.5s6.3-1.4 9.4-1.8a48.46 48.46 0 0 1 9.3-.6 30.21 30.21 0 0 1 6.9 1c-2.6 3.3-5.3 6.7-8 10a16.81 16.81 0 0 0 -8.4-1.6 34.35 34.35 0 0 0 -8.6 1.3 55.3 55.3 0 0 0 -8.1 2.8 53.35 53.35 0 0 0 -7.5 3.9c2.7-.6 5.4-1.3 8.2-1.9a76.24 76.24 0 0 1 8.1-1.4 43 43 0 0 1 7.9-.5 18.56 18.56 0 0 1 5.5 1c-2.5 3.1-5.1 6.1-7.7 9.1l-.9-.1a29 29 0 0 0 -7.3.4 48.4 48.4 0 0 0 -6.8 1.8c-2.2.8-4.3 1.7-6.4 2.7a44.15 44.15 0 0 0 -6 3.4c4.5-1 8.9-2.1 13.3-2.9 2.2-.4 4.4-.8 6.5-1 1.4-.1 2.8-.2 4.1-.2-3.2 3.7-6.4 7.4-9.6 11l-.6-.1a21.51 21.51 0 0 0 -6.3.5 54.75 54.75 0 0 0 -5.8 1.5 52 52 0 0 0 -5.5 2.1 52 52 0 0 0 -5.3 2.6c2-.3 3.9-.7 5.8-1.1l5.7-1.1c1.9-.4 3.8-.7 5.6-.9a21.59 21.59 0 0 1 3.5-.3l-9.3 10.2a.37.37 0 0 1 -.3-.1h-.8l-2.2.3c-1.4.3-2.8.6-4.2 1a60.49 60.49 0 0 0 -8.2 2.7c2.9-.2 5.7-.6 8.6-1l4.2-.6c.3 0 .6-.1.9-.1-2.3 2.4-4.6 4.9-6.9 7.3l.1-.4-1.9.9-3.3 1.5c-1.1.5-2.2 1.1-3.3 1.6l-3.3 1.8a33.71 33.71 0 0 0 -3.2 1.9c1.2-.3 2.4-.6 3.6-1s2.4-.8 3.5-1.2 2.3-.8 3.5-1.3a6.12 6.12 0 0 0 1.2-.5c-.4.5-.9.9-1.3 1.4l1.4-1.4c.1 0 .1 0 .2-.1a14.62 14.62 0 0 1 -.5 2c-.3 1.3-.7 2.6-1 4s-.7 2.6-1.2 3.9a14.3 14.3 0 0 1 -1.7 3.8 14.43 14.43 0 0 0 2.7-3.3 11.4 11.4 0 0 0 1-1.9 15.39 15.39 0 0 0 .8-1.9c.5-1.3 1-2.6 1.4-4s.7-2.7 1-4.1l.2-1.3 7.7-7.7h.1v.3a30.52 30.52 0 0 1 -.5 4.1c-.2 1.4-.5 2.8-.7 4.2a77.17 77.17 0 0 1 -2 8.3 17.93 17.93 0 0 0 2.2-3.8 28.64 28.64 0 0 0 1.5-4.1 41 41 0 0 0 1.7-8.6 7.6 7.6 0 0 0 -.1-1.4l-.1-.2a.76.76 0 0 0 -.2-.4.1.1 0 0 0 -.1-.1l-.1-.1c3.3-3.4 6.7-6.8 10-10.3v.1a5.64 5.64 0 0 1 .4 1.2 10.89 10.89 0 0 1 .5 2.6 32.52 32.52 0 0 1 .2 5.4 56.2 56.2 0 0 1 -.6 5.6l-.5 2.8c-.2.9-.4 1.9-.6 2.9a21.48 21.48 0 0 0 1.4-2.6l1.2-2.7c.3-.9.7-1.9.9-2.8s.5-1.9.7-2.9a24.74 24.74 0 0 0 .4-6.1 16.68 16.68 0 0 0 -.5-3.1 8.8 8.8 0 0 0 -.5-1.5c-.1-.3-.2-.5-.3-.8l-.3-.6c3.4-3.6 6.7-7.1 10-10.7.4 1.5.8 3 1.1 4.5.5 2.4.9 4.8 1.3 7.2.2 1.2.3 2.4.4 3.6s.2 2.4.2 3.7a63.18 63.18 0 0 1 -.2 7.5 27.19 27.19 0 0 0 2.4-7.3 42.7 42.7 0 0 0 0-15.4 51.05 51.05 0 0 0 -1.8-7.5c2.8-3.1 5.6-6.3 8.4-9.4.1.1.2.3.3.4.3.5.6 1 .9 1.6a25.18 25.18 0 0 1 1.5 3.4 37.31 37.31 0 0 1 1.8 7.5l.2 2 .1 2c.1 1.3.1 2.7.1 4s-.1 2.7-.1 4.1-.2 2.7-.3 4.1l1.5-3.9c.4-1.3.7-2.7 1.1-4 .2-1.4.5-2.8.6-4.2.1-.7.1-1.4.2-2.1v-2.1a36.38 36.38 0 0 0 -1.2-8.6 20.5 20.5 0 0 0 -1.6-4.1 19.83 19.83 0 0 0 -1.1-2c-.2-.3-.4-.6-.7-1a1.76 1.76 0 0 0 -.4-.5c2.8-3.3 5.7-6.6 8.5-9.9l.1.1c.4.5.8 1.1 1.2 1.7s.7 1.2 1.1 1.8l1 2a36.09 36.09 0 0 1 2.8 8.6 92.83 92.83 0 0 1 1.5 9.2l.4 4.8.3 4.8c.4-1.6.8-3.1 1.2-4.7s.5-3.2.8-4.8a46.8 46.8 0 0 0 0-9.9 34.73 34.73 0 0 0 -2.3-9.9 25.57 25.57 0 0 0 -1.1-2.4 17.1 17.1 0 0 0 -1.3-2.3 17.68 17.68 0 0 0 -1.6-2.2 6 6 0 0 0 -.8-.8l5.2-6.4 3.6-4.4v-.1l.6.6a11.21 11.21 0 0 1 2.3 3.5 30 30 0 0 1 1.7 4.5c1 3.2 1.6 6.6 2.3 10 1.2 6.9 1.9 14 2.8 21.2a79.35 79.35 0 0 0 2.3-21.7 52.71 52.71 0 0 0 -1.4-11.1c-.9-3.7-2.2-7.6-5.4-11a15.38 15.38 0 0 0 -1.3-1.2l6.3-8.1c1.3-1.7 2.5-3.3 3.8-5a2.65 2.65 0 0 1 .5.6 18.48 18.48 0 0 1 1.9 2.7c.5 1 1.1 1.9 1.6 3l.7 1.6c.2.5.4 1.1.6 1.6l.6 1.6a10.93 10.93 0 0 1 .5 1.7 19.06 19.06 0 0 1 1 3.4c.3 1.2.6 2.3.9 3.5l.7 3.5c.3 1.2.4 2.4.6 3.6l.6 3.6c.2 2.4.6 4.9.8 7.3s.4 4.9.6 7.4.3 5 .5 7.5c.5-2.5 1-4.9 1.4-7.4s.6-5 .9-7.5.2-5.1.3-7.6l-.1-3.8c0-1.3-.1-2.6-.2-3.8a62.24 62.24 0 0 0 -3.1-15.2 39.87 39.87 0 0 0 -3.3-7.3 26.16 26.16 0 0 0 -2.4-3.4c-.4-.6-1-1.1-1.4-1.6l-.2-.2c3.1-4.1 6-8.4 9-12.6a12.35 12.35 0 0 1 3.6 3.9 28.35 28.35 0 0 1 2.8 5.5 86.19 86.19 0 0 1 3.7 12.8c1.8 8.9 3 18.2 4.1 27.6.6-2.3.9-4.7 1.3-7s.5-4.7.7-7.1a97.61 97.61 0 0 0 -.1-14.3 59.33 59.33 0 0 0 -1-7.2 47.38 47.38 0 0 0 -1.8-7.2 34.48 34.48 0 0 0 -3.2-7.1 20.48 20.48 0 0 0 -5.7-6.1c1.7-2.5 3.3-5 4.9-7.4.5-.7.9-1.4 1.4-2.1a13.73 13.73 0 0 1 1.3 2c1.3 2 2.5 4.1 3.6 6.2a89.56 89.56 0 0 1 5.4 13.6c.3 1.2.7 2.4 1.1 3.6l.9 3.6c.3 1.2.6 2.4.9 3.7l.8 3.7c.3 1.2.4 2.5.7 3.7s.4 2.5.7 3.8.3 2.5.5 3.8.4 2.5.6 3.8c.4-2.5.8-5.1 1.1-7.7s.3-5.2.3-7.8-.1-5.2-.4-7.8c-.1-1.3-.3-2.6-.4-3.9s-.4-2.6-.7-3.9a71 71 0 0 0 -4.7-15.3 49.5 49.5 0 0 0 -3.8-7.2 40.47 40.47 0 0 0 -2.3-3.4 14.7 14.7 0 0 1 -1-1.3 2.19 2.19 0 0 1 .3-.5l6-9.6.7-1.2c.2.2.5.4.7.6a35 35 0 0 1 3.9 4.6 54.18 54.18 0 0 1 5.9 11.5c3.3 8.2 5.4 17.1 7.7 26.1a80.35 80.35 0 0 0 -1.9-28 50.5 50.5 0 0 0 -5.5-13.5 33.19 33.19 0 0 0 -4.7-6.1c-.5-.5-1-.9-1.5-1.4-.2-.2-.4-.3-.6-.5l1.1-1.8c1.9-3.2 3.7-6.5 5.5-9.8.3-.6.7-1.2 1-1.8v.1l2.7 3.3c1.7 2.3 3.4 4.6 5 7s3.1 4.9 4.5 7.4l2.1 3.8 2 3.9c.7 1.3 1.2 2.6 1.9 3.9s1.2 2.6 1.8 4l1.7 4.1c.5 1.4 1 2.8 1.5 4.1.8 2.1 1.5 4.3 2.2 6.4-13.1 60.1-29.5 123.4-29.5 123.4l-33.5 115.2h-117.2v12.9h815v-12.9h-656.9zm90.7-387.7v-.4c.1.1.1.2.2.2a.22.22 0 0 0 -.2.2zm3.2 26.8c-1.1-5.7-1.9-11.4-2.5-17.1l.3-.3 3.9-3.6c2.9 3.8 5.7 7.7 8.3 11.7.2.3.3.5.5.8a12.13 12.13 0 0 0 -1.4 1 26.93 26.93 0 0 0 -2.7 2l-1.3 1-1.3 1.1c-.8.7-1.7 1.4-2.5 2.2zm16.7 13-1.3 1-1.3 1.1c-.8.7-1.7 1.4-2.5 2.1l-2.3 2.3c-1.2 1.1-2.4 2.4-3.5 3.6-1.5-4.7-2.7-9.4-3.8-14.1l.4-.4a11 11 0 0 1 1-1.1l1.1-1 2.1-2.1c.7-.7 1.5-1.3 2.3-2l1.1-1 1.2-.9c.8-.6 1.5-1.2 2.4-1.8.2-.1.4-.3.6-.4.8 2.5 1.6 5 2.5 7.5.7 1.9 1.5 3.8 2.3 5.6-.9.6-1.6 1.1-2.3 1.6zm69.2-86.5a70.6 70.6 0 0 0 -6.8 3.3c-1.7 1-3.4 2-5 3.1l-.7-.7c-2.7-2.5-5.2-5.1-7.6-7.8 3.2-1.5 6.5-2.8 9.8-4.1l3.3-1.2.8 1a45.07 45.07 0 0 0 3.7 3.9zm-.6-9.3a5.64 5.64 0 0 0 1.2-.4l2.7-.8 2.8-.7 5.6-1.4c1.1-.2 2.2-.5 3.3-.7 1.1 1.3 2.2 2.6 3.4 3.9 1.1 1.1 2.1 2.3 3.2 3.4-1.8.3-3.6.6-5.4 1a85.73 85.73 0 0 0 -11 3.1c-2-2.5-4-4.9-5.8-7.4zm-10.7 87.2c-.4-.3-.9-.6-1.3-.9a91.3 91.3 0 0 0 -8.4-5.3 21.16 21.16 0 0 0 -2.1-1.1 4.87 4.87 0 0 0 -.1-1.2c-.1-3.4-.1-6.8.1-10.2 3.9 1.8 7.7 3.8 11.5 5.9-.1 4.3 0 8.6.3 12.8zm-3 1.9 3.3 1.8a142.77 142.77 0 0 0 2.2 14.6l-3.4-2c-1.4-.8-2.8-1.5-4.2-2.3a35.48 35.48 0 0 0 -4.4-2.1 4.88 4.88 0 0 0 -.7-.3c-.6-4.5-1.1-9.1-1.3-13.6 2.9 1.2 5.7 2.5 8.5 3.9zm4.1-28.5a103 103 0 0 0 -1.4 13.5 97.57 97.57 0 0 0 -11.3-8.8 95.9 95.9 0 0 1 6.8-30.6c.2-.4.4-.9.6-1.3 4.1 1.9 8.2 3.9 12.2 6a68.06 68.06 0 0 0 -3.4 7.8 80.14 80.14 0 0 0 -3.5 13.4zm-8.3-46.1 4 3 .2.2a29.11 29.11 0 0 0 -2.7 2.4 4.62 4.62 0 0 1 -.7.7l-.6-.3-5.6-2.6-5.7-2.4c-.9-.4-1.9-.8-2.8-1.2l2-1.4c1.9-1.2 3.8-2.4 5.8-3.4l2.2 1.9c1.4 1 2.6 2.1 3.9 3.1zm-22.5 64.8a71.69 71.69 0 0 1 9.1 2.4c.8.3 1.6.5 2.4.8.4 2.8.8 5.6 1.4 8.4.4 1.9.8 3.7 1.3 5.5-1-.4-2-.7-3-1.1-1.5-.5-3.1-1-4.7-1.5-.8-.2-1.6-.5-2.3-.7l-2.4-.6a8.33 8.33 0 0 1 -1.5-.4q-1.2-4.95-2.1-9.9c-.2-1.2-.4-2.3-.6-3.5a21 21 0 0 0 2.4.6zm-3.3-7.3-.3-2.7q-.45-4.65-.6-9.3c4.9 1.4 9.8 3.2 14.6 5.1 0 3.8.1 7.6.4 11.3a77.69 77.69 0 0 0 -9.2-3.3c-1.7-.4-3.3-.8-4.9-1.1zm14.2-17c-.2 1.9-.3 3.7-.4 5.6-1.3-.7-2.6-1.4-4-2.1a83.37 83.37 0 0 0 -9.1-4l-1.8-.6c.1-3.5.3-7 .7-10.5a83.55 83.55 0 0 1 1.9-10.2c.4.2.9.3 1.3.5a14.63 14.63 0 0 0 -1.3-.9c.2-.7.3-1.3.5-2a68.37 68.37 0 0 1 2.5-7.2l.7.2c1.9.6 3.7 1.4 5.5 2l5.5 2.1 4.6 2c-.2.5-.4.9-.6 1.4a82.62 82.62 0 0 0 -6 23.7zm-4.3-48.4-2.6 1.7c-.9.6-1.7 1.3-2.5 1.9-.4.3-.7.6-1.1.9l-.4-.2-2.9-1.1-2.9-.9-1.6-.5-2.7-3c-.4-.4-.7-.9-1.1-1.3 2.3-1.5 4.7-2.8 7.1-4.2 2.6-1.4 5.2-2.6 7.9-3.8 2.3 2.7 4.6 5.4 7.1 8-1.4.8-2.9 1.7-4.3 2.5zm-15.9 13.7 2.8.8.4.1c-.9 2.2-1.6 4.5-2.3 6.8a70.06 70.06 0 0 1 -6-4.8c-2.3-1.9-4.5-3.9-6.7-6l.5.1c1.9.5 3.8.9 5.7 1.4zm-7.2 5.7 3.8 2.2c1.2.6 2.4 1.2 3.7 1.8a88.16 88.16 0 0 0 -2.1 12.5c-.3 3-.4 6.1-.4 9.1a6.37 6.37 0 0 0 -.7-.2 67.39 67.39 0 0 0 -10-1.7 59.33 59.33 0 0 0 -7.3-.2v-.6c0-2.1.2-4.3.3-6.4s.4-4.2.7-6.3a84.23 84.23 0 0 1 3.6-15.8c2.8 2 5.6 3.9 8.4 5.6zm-8.2 44.8c-.5-.9-1.1-1.8-1.6-2.7l-2.4-3.9a19.42 19.42 0 0 1 -.2-2.4c-.1-1.6-.2-3.3-.3-4.9 2.2-.1 4.5-.2 6.7-.1a74.19 74.19 0 0 1 11.4 1.5 117.1 117.1 0 0 0 1.4 11.9c0 .3.1.5.1.8a63.58 63.58 0 0 0 -15.1-.2zm10.2 19.4a21 21 0 0 0 -1.3-2.6l-2.5-4.9c-.8-1.6-1.7-3.1-2.5-4.7a73.58 73.58 0 0 1 11.5 0c.3 0 .7.1 1 .1.4 1.8.9 3.7 1.3 5.5q1.05 3.9 2.4 7.8a78.78 78.78 0 0 0 -9.9-1.2zm18.3 23.8c-2.1-.5-4.3-.8-6.4-1.2l-2.4-.3q-2.55-6.75-5.4-13.5c.6.1 1.1.1 1.7.2l4.5.5c1 .1 2 .3 3 .5a151.24 151.24 0 0 0 6.5 14.2 11.31 11.31 0 0 0 -1.5-.4zm12.6 3.5-3.1-1.1-3.2-.9-3.4-.9c-1.6-4.6-3-9.3-4.3-13.9a16 16 0 0 1 2.1.5l4.5 1 7.2 2.1a131.31 131.31 0 0 0 5.6 15.2c-1.7-.6-3.5-1.4-5.4-2zm12.1 5.2c-1.7-.9-3.4-1.7-5.2-2.5-1.1-4.8-2-9.6-2.8-14.3 2 .7 4 1.5 6 2.3l4.3 1.8c.9.4 1.7.8 2.6 1.2.2.9.4 1.7.6 2.6 1.3 5 2.8 9.9 4.5 14.8a77.18 77.18 0 0 0 -10-5.9zm27 21.5a82.54 82.54 0 0 0 -14.5-13.8c-1-5.6-1.9-11.1-2.5-16.7 3.6 1.9 7.2 3.9 10.7 6.1.1.6.2 1.1.3 1.7l.8 3.5 1.5 7c.6 2.3 1.4 4.5 2 6.8.6 1.8 1.1 3.6 1.7 5.4zm4.3-91.7c-.4.6-.7 1.2-1.1 1.8a70.23 70.23 0 0 0 -3.5 6.6 88.35 88.35 0 0 0 -4.9 13.9 100.57 100.57 0 0 0 -2.7 28.8c.1 2.4.2 4.8.4 7.2s.6 4.7 1 7.1c0 .2.1.5.1.7-1.4-1.4-3-2.8-4.5-4.2-1.2-1-2.5-2.1-3.7-3l-2.8-2.1c-.3-3.1-.6-6.2-.8-9.3l-.3-5.1c2.1 1.3 4.2 2.7 6.2 4.2a74.9 74.9 0 0 0 -6.3-6.3c-.1-1.9-.1-3.8-.1-5.7a124.4 124.4 0 0 1 2.3-25.2 67.72 67.72 0 0 1 3.4-11.9c.9-2.2 1.8-4.4 2.9-6.5 4.9 3 9.7 5.9 14.4 9zm-3.3-29.6c-.9.5-1.9.9-2.8 1.5l-2.7 1.6a24 24 0 0 0 -2.6 1.8c-.9.6-1.7 1.2-2.6 1.9-.7.6-1.5 1.2-2.2 1.8-4-2.3-8-4.5-12.1-6.6.8-.7 1.7-1.4 2.6-2.1.2.1.3.2.5.3 2.8 1.7 5.7 3.3 8.6 4.8l-7.4-6.3 2.7-1.8a70.48 70.48 0 0 1 9.1-4.6c1 .8 2 1.5 3 2.3a79 79 0 0 0 6.9 4.9 9.29 9.29 0 0 0 -1 .5zm5.7-2.7-2.4 1c-2.3-2.2-4.7-4.2-6.8-6.6a15.38 15.38 0 0 1 -1.2-1.3c2.4-.9 4.8-1.7 7.2-2.5 3.1-.9 6.1-1.7 9.3-2.4l.9.9 2.1 1.7 4.3 3.3c.5.4 1 .7 1.6 1.1a105 105 0 0 0 -15 4.8zm.9-25.6c.3-.1.6-.1.9-.2l11.4-1.9c1.1-.1 2.2-.3 3.3-.5a73.56 73.56 0 0 0 5.5 7c.7.8 1.5 1.6 2.2 2.5a139.83 139.83 0 0 0 -17.1.8 82.21 82.21 0 0 1 -5.2-6.5c-.3-.3-.6-.8-1-1.2zm35.2 18.9h-4.6c-.5 0-1 .1-1.5.1l-6.1.5c-1.6.2-3.2.5-4.8.7-1.1-1-2.3-2-3.3-3.1-1.4-1.4-2.8-2.9-4.1-4.3 5.1-1 10.3-1.9 15.5-2.6l.6.6 2 1.9 2 1.9a9.43 9.43 0 0 1 1 1l1.1.9c1 .8 2 1.6 3 2.5a2 2 0 0 0 -.8-.1zm-13.8-51.1c1.7 0 3.5.1 5.2.2a14.19 14.19 0 0 0 .5 2.2c.4 1.8.9 3.6 1.4 5.4a94.14 94.14 0 0 0 3.9 10.5 91.13 91.13 0 0 0 11.2 19.1 34.69 34.69 0 0 0 3.5 4.3l1.8 2.1.9 1 1 1 3.9 3.9c1.3 1.3 2.8 2.4 4.1 3.6.3.3.7.5 1 .8-.2-.1-.4-.1-.6-.2l-5.9-1.2c-2-.4-4-.8-6-1-1.8-.2-3.6-.4-5.3-.5a19.85 19.85 0 0 1 -2-2.1c-2.4-2.6-4.9-5.1-7.1-7.8 2.8-.3 5.7-.7 8.6-.9-3.4-.5-6.8-.8-10.2-1l-.2-.3-.9-1c-.3-.4-.5-.7-.8-1.1-1-1.5-2.1-2.9-3.2-4.3s-1.9-2.8-2.8-4.3c.2 0 .4-.1.6-.1h-.7a100.11 100.11 0 0 1 -7.6-14c-.7-1.6-1.4-3.2-2-4.9l-.9-2.5-.8-2.5a23.35 23.35 0 0 1 -.7-2.5c-.2-.7-.3-1.3-.5-2 3.5.1 7.1.1 10.6.1zm-19.3.5a3.55 3.55 0 0 1 .2 1c.2 1 .5 1.9.7 2.8s.5 1.9.9 2.8l1 2.7 1.1 2.7a49 49 0 0 0 2.4 5.2 83.92 83.92 0 0 0 6.2 10.4 19.27 19.27 0 0 1 -2.4-.1c-2 0-3.9.1-5.9.1l-5.9.2a28.25 28.25 0 0 0 -2.9.2c-2-2.9-3.9-5.9-5.6-8.9l8.1-1.2c-3-.1-5.9-.2-8.9-.2a15.05 15.05 0 0 1 -1.1-2.2c-.7-1.5-1.4-3.1-2.1-4.6a44.3 44.3 0 0 1 -1.7-4.7c-.6-1.6-1-3.2-1.4-4.7 5.8-.6 11.6-1.2 17.3-1.5zm-12.5 29c-.3 0-.6.1-.8.1l-5.8.9-2.9.5-2.9.6a35.89 35.89 0 0 0 -3.5.8c-1.8-2.6-3.4-5.3-5-8.1l8.1-1.8c2.4-.5 4.8-.9 7.2-1.4a61.35 61.35 0 0 0 5.6 8.4zm-13.2-26.3a2.92 2.92 0 0 1 .2.9 42.73 42.73 0 0 0 1.8 5.4 55.32 55.32 0 0 0 4.1 8.9h-.3l-3 .1-1.5.1-1.5.2c-2 .2-4 .4-6 .7-1 .1-2 .2-3 .4l-.9.2c-.1-.3-.3-.5-.4-.8-1.1-2.2-2.2-4.4-3.1-6.6 2.7-.7 5.3-1.4 8-2.2-2.9.2-5.8.5-8.6.8-.2-.4-.3-.7-.5-1.1-.5-1.3-1-2.7-1.5-4 5.3-1.1 10.8-2.1 16.2-3zm-16.8 23.6 1.5-.4c1.3 2 2.6 3.9 3.9 5.8l1.6 2.1a105.8 105.8 0 0 0 -12.3 4.4c-.5.2-.9.4-1.4.6a4.35 4.35 0 0 1 -.6-.7c-2-2.4-3.8-4.8-5.6-7.3 2.4-1 4.9-1.9 7.4-2.7zm-1.4-5.2-5.8 1.4c-3.2.8-6.4 1.8-9.5 2.8-.6-.9-1.2-1.8-1.7-2.7s-1.2-2-1.8-3.1c3.3-1.2 6.5-2.3 9.9-3.4 1.9-.6 3.7-1.1 5.6-1.7 1 2.3 2.1 4.5 3.3 6.7zm-17.7-10.5c3.8-1.1 7.5-2 11.3-3 0 .1.1.2.1.3.5 1.4 1.1 2.7 1.7 4l-5.3.9-5.5 1.2-2.8.6c-.9.2-1.8.5-2.7.7l-.2.1a4.67 4.67 0 0 1 -.5-1 20 20 0 0 1 -1-2.1c0-.1-.1-.2-.1-.3 1.6-.5 3.3-1 5-1.4zm-7.8 11.6a23.92 23.92 0 0 1 1.3 2.1l1.4 2.1a11.32 11.32 0 0 0 1 1.3c-2.3.9-4.6 1.9-6.8 3-2.8 1.4-5.6 2.9-8.3 4.6-1.3-2-2.6-4-3.8-6a.35.35 0 0 0 -.1-.2l1-.5c1.6-.9 3.3-1.6 5-2.4l2.5-1.2 2.6-1.1a40.81 40.81 0 0 1 4.2-1.7zm-4.4-7.9c.5 1.1 1.1 2.1 1.7 3.2-1.2.4-2.4.8-3.5 1.2l-2.7.9-2.7 1c-1.8.7-3.6 1.3-5.3 2.1l-1.3.6-.6-1.2a21.4 21.4 0 0 0 -1-2.2c5-2 10.1-3.9 15.4-5.6zm-17 18a2.09 2.09 0 0 0 .4.6c1.4 2.1 2.8 4 4.4 6l-2.2 1.6a2.65 2.65 0 0 1 -.6.5c-3.9-1-7.8-1.8-11.7-2.5.9-.6 1.8-1.2 2.6-1.8 1.5-1 3.1-1.9 4.6-2.9zm-9.3-8.1c1.3-.6 2.6-1.1 4-1.7.4.9.8 1.8 1.3 2.7a10.91 10.91 0 0 0 .6 1.1l-2.5 1.3c-1.7 1-3.4 1.9-5 2.9l-2.4 1.6-1.2.8-.5-.7c-.8-1.2-1.7-2.3-2.5-3.4-.1-.2-.3-.4-.4-.6 2.7-1.4 5.6-2.8 8.6-4zm3.7 28a94.09 94.09 0 0 0 -4.5 20.1c-.3 2.3-.4 4.6-.5 6.8s-.1 4.6 0 6.8v1.3a14.16 14.16 0 0 0 -2 .4l-.6-.9c-3-3.9-6.1-7.7-9.4-11.3.1-1.2.2-2.4.2-3.7a157.6 157.6 0 0 1 2.8-21.6c4.7.7 9.3 1.3 14 2.1zm-26.7-17 4.5-2.4c.9-.5 1.9-1 2.8-1.4.4.6.9 1.1 1.3 1.7.9 1.2 1.9 2.3 2.8 3.5l.1.1a9.85 9.85 0 0 0 -1.7-.2c-3.5-.4-7-.7-10.5-1a1.49 1.49 0 0 0 .7-.3zm-3 14.1q4 0 8.1.3a144.25 144.25 0 0 0 -2.5 18.5c-.8-.7-1.5-1.5-2.3-2.2l-.5-.5-.3-.3c-.2-.2-.3-.4-.5-.6a5.67 5.67 0 0 1 -.8-1.3 7.4 7.4 0 0 1 -.8-2.9l-.4-5.3-.1-.8-.3-.7a18.62 18.62 0 0 0 -2-4c0-.1-.1-.1-.1-.2zm-12.5 7.7c-.1-.1 0-.1 0 0zm-3.6 8.1c.3-.5.8-1.3 1.2-1.9a13.3 13.3 0 0 1 1.4-1.9c.5-.6.9-1.2 1.4-1.7l.2 2.1a18.51 18.51 0 0 0 2.4 7.3 22.74 22.74 0 0 0 2.2 3.2 17.88 17.88 0 0 0 1.3 1.4 4.62 4.62 0 0 1 .7.7l.5.5c1.3 1.1 2.6 2.3 3.9 3.4 2.1 2 4.1 4 6.1 6.2v1.3c.1 2.4.4 4.7.6 7.1.1 1.2.2 2.4.3 3.5l.4 2.5c-.7.8-1.5 1.5-2.2 2.3-1.3 1.4-2.6 2.8-3.8 4.2a132.35 132.35 0 0 0 -12.3 16.4c1.3-12.2 2.5-25.2 2.9-35.1a15.14 15.14 0 0 0 -.2-3 .1.1 0 0 1 .1.1l-.1-.1a16.34 16.34 0 0 0 -2.6-6.4 29.77 29.77 0 0 1 -4.8-12.2zm-31.6 132.9c-.5-1.4-1.1-2.9-1.7-4.3a79.78 79.78 0 0 0 -8.6-15 71.08 71.08 0 0 0 -5.5-6.8c-1-1.1-2-2.1-3.1-3.2-.5-.5-1.1-1-1.6-1.5l-.1-.1c1.9-4 3.7-8.1 5.5-12.1l.1.1a17.38 17.38 0 0 1 1.5 1.3l1.5 1.3 1.4 1.4a38.33 38.33 0 0 1 2.8 2.9 84.93 84.93 0 0 1 9.6 13.3l1.5 2.6c-.9 6.6-2.1 13.3-3.3 20.1zm.5-141.1v2.5a14.77 14.77 0 0 1 -.1 2.1c-.7-.1-1.5-.1-2.2-.2a41.7 41.7 0 0 0 -7.1.4c-1.5.2-3 .6-4.5.9a135.77 135.77 0 0 0 -2.7-15.5q6-2.1 12-3.6c.4-.1.8-.2 1.1-.3.4 1.1.8 2.1 1.2 3.2a50 50 0 0 1 2.1 9.3zm-12.2 25.6a4.25 4.25 0 0 0 -1.1.2c.2-3.3.2-6.5.2-9.8 0-.9-.1-1.7-.1-2.6 1.7-.4 3.4-.7 5-1a28.79 28.79 0 0 1 5.8-.4 10.87 10.87 0 0 1 1.8.1c-.3 3.1-.7 6.2-1.1 9.4-.2 1.4-.4 2.9-.7 4.3a40.29 40.29 0 0 0 -9.8-.2zm8.5 7.5c-.6 3.3-1.4 6.6-2.1 9.9-.5 2.1-1 4.2-1.5 6.2a51.52 51.52 0 0 0 -9.6-.2c.5-1.8.9-3.6 1.3-5.5.7-3.3 1.2-6.6 1.6-10 .9-.1 1.7-.3 2.6-.4a45.63 45.63 0 0 1 6.4-.2 5.85 5.85 0 0 0 1.3.2zm-17.2-50c-.3-.3-.5-.6-.8-.9-1.4-1.6-3-2.9-4.5-4.4-.7-.6-1.3-1.2-2-1.7a21.66 21.66 0 0 0 2.5-.4l3.4-.6c1.1-.2 2.3-.5 3.4-.7l3.4-.9c1.4-.3 2.7-.8 4-1.2 1.5 1.9 2.9 4 4.2 6-4.7 1.4-9.2 3-13.6 4.8zm.3 32.3a2.2 2.2 0 0 0 .1.8c.2 3.6.2 7.3.1 10.9a73.45 73.45 0 0 0 -10.3 3.5 71.58 71.58 0 0 0 -.5-8c-.1-1.1-.3-2.1-.4-3.2 3.6-1.4 7.3-2.8 11-4zm-10.3 22.7c3.3-1.2 6.6-2.2 10-3.1-.2 2.5-.5 5-.8 7.5s-.8 4.9-1.2 7.3a76.36 76.36 0 0 0 -9.7 2.4l.4-1.9c.6-4 1-8.1 1.3-12.2zm11.7 18.9v-.2c1.1-.1 2.1-.2 3.2-.2l1.9-.1h1.9a28.25 28.25 0 0 1 2.9.2c-1 3.7-2.1 7.5-3.3 11.2-.3.7-.6 1.5-.9 2.2a48.65 48.65 0 0 0 -6.5-.5c-1.4 0-2.7.1-4.1.1 1.8-4.1 3.5-8.4 4.9-12.7zm23.6 53.7a65.3 65.3 0 0 0 -7-10.4c-1-1.1-1.9-2.3-3-3.4l-1.6-1.6-1.7-1.5-1.8-1.5c-.6-.5-1.2-.9-1.8-1.4.3-.8.7-1.7 1-2.5 1.1-2.8 2.2-5.7 3.3-8.5.2.1.3.2.5.3a31.72 31.72 0 0 1 5.4 3.6 54.49 54.49 0 0 1 8.9 9.6c-.5 5.5-1.3 11.3-2.2 17.3zm3.5-26.7a47.9 47.9 0 0 0 -5.3-5.8 37.27 37.27 0 0 0 -6.7-4.9c-.5-.2-1-.5-1.5-.7 1.5-4.3 3-8.7 4.4-13.1.3.2.7.4 1 .6 1.9 1.1 3.7 2.2 5.5 3.4 1.5 1 3 2 4.4 3.1-.5 5.4-1.1 11.3-1.8 17.4zm2.6-25.5a7 7 0 0 0 -1-.8c-1.9-1.4-3.8-2.8-5.8-4-.9-.5-1.7-1-2.6-1.5.7-2.3 1.3-4.6 1.9-6.9q1.35-4.95 2.4-9.9a60 60 0 0 1 6.8 3.2c-.4 5.6-1 12.4-1.7 19.9zm-6.2-73.7c2.4-.4 4.9-.6 7.3-.8 1.3-.1 2.6-.2 3.9-.2a14.73 14.73 0 0 0 -2.8.8 18.81 18.81 0 0 0 -7 4.7l-.6-2.1a22.5 22.5 0 0 0 -.8-2.4zm9.1 32.8s-.2 5.1-.8 13.9c-.9-.5-1.8-1.1-2.7-1.5a29.62 29.62 0 0 0 -3.1-1.5c.4-1.8.7-3.6 1-5.5.5-2.9.9-5.7 1.3-8.6 1.5.4 2.9.9 4.4 1.4zm13.6-32.8c.1 0 .2.1.3.1a2.2 2.2 0 0 0 .8.1v.4a4.87 4.87 0 0 0 -1.1-.4c-.4-.1-.8-.3-1.3-.4.5 0 1 .2 1.3.2zm-2.8 10.8a2.65 2.65 0 0 0 -.5.6 23.48 23.48 0 0 0 -1.9 2.5 2.09 2.09 0 0 0 -.4.6c-1.7.8-4.7 3.1-6.8 9.9a28.8 28.8 0 0 0 -3.1-1.3l-1.5-.6c0-.5.1-1 .1-1.6.1-1 .1-1.9.2-2.9a10.87 10.87 0 0 1 .1-1.8 18.66 18.66 0 0 1 2.5-3.9 7.64 7.64 0 0 1 3.6-2.5 8.78 8.78 0 0 1 4.3-.2 10.88 10.88 0 0 1 2.4.7 9.29 9.29 0 0 0 1 .5zm-11.8-35.3c2.9 2.7 5.7 5.4 8.4 8.3.7.8 1.4 1.5 2.2 2.3-.3.1-.5.3-.8.4-1 .5-2.1 1-3.1 1.5a30.9 30.9 0 0 1 -3.2 1.4c-.2.1-.4.1-.5.2-1.5.1-3 .2-4.5.4-3.6.4-7.1 1-10.5 1.7a63.65 63.65 0 0 0 -4.6-6.9c2.7-1.2 5.4-2.4 8.1-3.9 1-.6 2-1.1 3.1-1.8s2-1.2 3-1.9c.7-.5 1.6-1.1 2.4-1.7zm-15.4-13c3.6 2.7 7.1 5.6 10.5 8.6l-1.3 1c-1.8 1.3-3.6 2.5-5.5 3.7-2.8 1.7-5.6 3.4-8.6 4.9-.4-.4-.7-.8-1.1-1.2a84 84 0 0 0 -7.6-7c1.4-.8 2.8-1.6 4.1-2.5 2-1.3 4-2.7 5.9-4.2a38.1 38.1 0 0 0 3.6-3.3zm-16.3-11.1c3.5 2.1 6.9 4.4 10.3 6.7l1.1.8c-.8.8-1.6 1.7-2.4 2.5a26.22 26.22 0 0 1 -2.5 2.2 27.46 27.46 0 0 1 -2.6 2.2c-1.6 1.3-3.3 2.6-5 3.8a74.91 74.91 0 0 0 -9.8-5.9c-.7-.4-1.4-.7-2.2-1.1 2.1-1.5 4.1-3.1 6.1-4.7 1.6-1.4 3.2-2.8 4.7-4.2zm-20.1-5.9c.6-.9 1.3-1.9 1.9-2.9a2.09 2.09 0 0 1 .4-.6c4.1 1.8 8.2 3.9 12.1 6.1l-1 1c-1.4 1.4-2.8 2.9-4.2 4.2-2.4 2.3-4.9 4.5-7.4 6.7a105.51 105.51 0 0 0 -10.7-3.9c1.7-1.7 3.3-3.4 4.9-5.3a56.43 56.43 0 0 0 4-5.3zm-25.7 6.7a103 103 0 0 0 7-9c1.6-2.4 3.1-4.8 4.5-7.3 3.5 1.1 7 2.3 10.4 3.6-.5.8-1 1.7-1.5 2.5s-1.1 1.7-1.7 2.6l-.9 1.3-.9 1.3c-1.9 2.5-3.9 5-6.1 7.4h-.1a82.25 82.25 0 0 0 -10.7-2.4zm7.2 21.5c-.9-.4-1.9-.7-2.9-1.1l-2.9-1c-1-.3-1.9-.7-2.9-1a10.26 10.26 0 0 1 -1.4-.4c.4-.2.9-.5 1.3-.7 1-.5 1.9-1.1 2.9-1.6s1.9-1.2 2.8-1.7 1.8-1.3 2.7-1.9l1.4-1 1.3-1c.9-.7 1.7-1.4 2.6-2.1.3-.3.7-.6 1-.9a106.34 106.34 0 0 1 9.7 4.4c-2.2 1.7-4.4 3.4-6.6 5-2.6 1.9-5.3 3.6-8.1 5.3a2.3 2.3 0 0 1 -.9-.3zm28.4 16.1c-.1 0-.3.1-.4.1-2-1.6-4-3.2-6.1-4.6a101.7 101.7 0 0 0 -19.7-10.7c.9-.3 1.8-.5 2.7-.9s2-.7 2.9-1.1l2.9-1.3a74.38 74.38 0 0 0 9.6-5.2c1.6.9 3.1 1.7 4.6 2.7 2.4 1.5 4.7 3.1 7 4.8-3.9 2.7-8 5.3-12.1 7.9a112.48 112.48 0 0 0 15-5.6 71.76 71.76 0 0 1 8.5 8c-2.8 1.3-5.6 2.5-8.5 3.6-2.1.9-4.3 1.5-6.4 2.3zm-6 23.7a123.91 123.91 0 0 1 11.7-5.4 130.35 130.35 0 0 1 2.5 15 92.31 92.31 0 0 0 -11.5 5.3l-.2-.9-.9-3.4-.5-1.7-.6-1.7c-.4-1.1-.7-2.2-1.2-3.3s-.8-1.9-1.2-2.9c.7-.3 1.3-.7 1.9-1zm-1 68.7 1-3.3 1.2-4.2c3.2-.8 6.4-1.5 9.7-2-.9 3.7-1.9 7.3-3.1 10.9l-.6 1.8a85.89 85.89 0 0 0 -10.1 2l.8-2c.3-1.1.8-2.1 1.1-3.2zm-10.9-8.8a88.56 88.56 0 0 0 .7-13.6c3-1.3 5.9-2.6 8.9-3.8q-.15 4.35-.6 8.7l-.7 5a87.52 87.52 0 0 0 -8.3 3.7zm7.1 2.9c-.1.5-.2.9-.3 1.4l-.6 3.2c-.2 1.1-.6 2.1-.8 3.2l-1.3 4.7c-2.7.9-5.4 1.8-8 2.8.5-1.6.9-3.2 1.4-4.8.7-2.7 1.2-5.4 1.7-8.2 2.6-.8 5.3-1.6 7.9-2.3zm1.6-38.6c.1.4.1.7.2 1.1a89.29 89.29 0 0 1 .8 10.4c-.7.3-1.3.7-2 1-2.5 1.4-4.9 2.9-7.2 4.4-.2-2.3-.4-4.6-.8-6.9-.3-1.8-.7-3.7-1.1-5.5 3.4-1.5 6.7-3 10.1-4.5zm-5.4-19.4c.3.7.6 1.3.9 2 .4.9.7 2 1.1 3l.5 1.5.4 1.5.9 3.1.7 3.1a98.69 98.69 0 0 0 -9.8 7.2c-.4-1.7-.9-3.3-1.4-4.9q-1.05-3.15-2.4-6.3c-.4-1-.9-2.1-1.4-3.1-.1-.1-.1-.3-.2-.4 3.4-2.4 7-4.6 10.7-6.7zm-14.5 61.6c-1.4.9-2.7 1.9-4 2.8a91.28 91.28 0 0 0 .5-15.7l8.7-4.2c.1 3.5.1 7.1-.1 10.6-.1 1.1-.2 2.3-.3 3.4-1.6 1-3.2 2-4.8 3.1zm4.4.8a115.77 115.77 0 0 1 -2.3 13.1c-.1.1-.3.1-.4.2-2.3 1.1-4.5 2.2-6.7 3.4a18.58 18.58 0 0 0 -1.9 1.1c.2-.8.4-1.7.6-2.5.5-2 .9-4.1 1.4-6.1s.6-4 .8-5.9c2.8-1.2 5.7-2.3 8.5-3.3zm-15.2-41c-.6-1-1-1.9-1.7-2.9 2.4-1.9 4.8-3.7 7.2-5.5.9-.7 1.8-1.3 2.7-1.9.3.7.7 1.4 1 2.1.8 1.8 1.5 3.7 2.2 5.6a78.73 78.73 0 0 1 3.1 11.8 89.66 89.66 0 0 1 1.4 10.4 76 76 0 0 0 -8.5 7.5 68.24 68.24 0 0 0 -1.1-8.8 70.59 70.59 0 0 0 -3.5-12.5c-.8-1.8-1.8-3.8-2.8-5.8zm8.3 70.2c-1.3.6-2.6 1.3-3.9 2-2.3 1.2-4.5 2.5-6.7 3.9a18 18 0 0 0 .8-2.1c.8-1.9 1.6-3.8 2.3-5.8s1.2-4 1.9-5.9l.6-1.8c2.9-.7 5.7-1.5 8.5-2.2v.1a99.54 99.54 0 0 1 -3.5 11.8zm12.4-5c-.5.2-1 .3-1.5.5-2.6.9-5.2 1.9-7.7 3 1.4-3 2.8-6 4-9.1a20.94 20.94 0 0 0 .8-2.3c2.6-.6 5.2-1.2 7.7-1.7l-.5 1.5c-.7 2.1-1.5 4.2-2.2 6.3zm13.8-3.1a60.16 60.16 0 0 0 -11.2 2.3v-.1c1-2 2-4 3-6.1l1.5-3.1.2-.4 7.1-1.2c1.1-.1 2.1-.3 3.2-.4-.4 1.1-.9 2.2-1.3 3.3-.8 2-1.6 3.8-2.5 5.7zm9.1-.3a45.56 45.56 0 0 0 -7.4.1 101.08 101.08 0 0 0 5.3-9 1.7 1.7 0 0 0 .7-.1 62.34 62.34 0 0 1 10.6.1c-1.1 2.7-2.3 5.3-3.5 8 1-1.4 2-2.9 3-4.3-.5 1.4-1 2.9-1.6 4.3-.2.6-.5 1.2-.7 1.9a47.24 47.24 0 0 0 -6.4-1zm13 74a97 97 0 0 0 -8.1-16.5c-1.6-2.6-3.3-5.2-5.2-7.7-1-1.2-1.9-2.5-2.9-3.6-.5-.6-1-1.2-1.6-1.8l-.5-.5c.2-.3.3-.6.5-.9 2.1-3.9 4.1-7.9 6-11.8.9.9 1.8 1.8 2.8 2.7a74.54 74.54 0 0 1 5.2 6 100.12 100.12 0 0 1 9 13.3c1.9 3.5 3.7 7.1 5.3 10.8 0 .2-.1.4-.1.6-1.7 8.7-3.6 17.8-5.5 27a97.79 97.79 0 0 0 -4.9-17.6z"/></g></svg>